<svg xmlns="http://www.w3.org/2000/svg" x="0px" y="0px"
viewBox="0 0 172 172"
style=" fill:#000000;"><g fill="none" fill-rule="nonzero" stroke="none" stroke-width="1" stroke-linecap="butt" stroke-linejoin="miter" stroke-miterlimit="10" stroke-dasharray="" stroke-dashoffset="0" font-family="none" font-weight="none" font-size="none" text-anchor="none" style="mix-blend-mode: normal"><path d="M0,172v-172h172v172z" fill="none"></path><path d="M86,167.7c-45.12166,0 -81.7,-36.57834 -81.7,-81.7v0c0,-45.12166 36.57834,-81.7 81.7,-81.7h0c45.12166,0 81.7,36.57834 81.7,81.7v0c0,45.12166 -36.57834,81.7 -81.7,81.7z" fill="#ff8b8b"></path><g fill="#ffffff"><path d="M90.5941,34.40112c-11.29714,0 -19.55465,4.46539 -23.92102,11.08922c-0.901,1.35645 -1.57427,2.7822 -2.13863,4.27727l-0.63367,-1.26734c-0.41584,-0.85149 -1.26734,-1.40595 -2.21784,-1.42576c-8.77236,0 -15.32688,3.56439 -18.77246,8.87137c-3.14854,4.84163 -3.33667,10.9308 -1.34655,16.63382c-0.15842,0.25743 -0.49505,0.39604 -0.63367,0.71288c-0.47525,1.05942 -0.73268,2.39606 -0.55446,3.96043c0,0.0297 0,0.0495 0,0.07921c0.28713,2.30695 0.8713,3.96043 1.8218,5.22777c0.40594,0.53466 1.04952,0.53466 1.58417,0.8713c0.37624,1.88121 0.9109,3.75251 1.66338,5.30698c0.44555,0.9307 0.9208,1.73269 1.42576,2.45547c0.16832,0.24753 0.45545,0.41585 0.63367,0.63367c0,1.94061 -0.06931,3.6832 -0.23763,5.94065c-0.45545,1.15843 -1.56437,2.17824 -3.6436,3.24756c-2.12873,1.08912 -4.98025,2.09903 -7.92087,3.40597c-2.94062,1.30694 -6.07927,2.89112 -8.55454,5.4654c-2.47527,2.57428 -4.22776,6.17828 -4.5149,10.77238c-0.0396,0.70298 0.20792,1.38615 0.68317,1.89111c0.48516,0.51486 1.14853,0.80199 1.8515,0.80199h15.76253c-0.38614,1.44556 -0.69307,3.00003 -0.79209,4.67331c-0.0396,0.70298 0.20792,1.38615 0.68317,1.89111c0.48516,0.51486 1.14853,0.80199 1.8515,0.80199h86.65431c0.70298,0 1.36635,-0.28713 1.8515,-0.80199c0.47525,-0.50496 0.72278,-1.18813 0.68317,-1.89111c-0.10891,-1.7723 -0.44555,-3.38617 -0.8713,-4.91094h15.84174c0.70298,0 1.36635,-0.28713 1.8515,-0.80199c0.47525,-0.50496 0.72278,-1.18813 0.68317,-1.89111c-0.28713,-4.5842 -2.05943,-8.1981 -4.5149,-10.77238c-2.45547,-2.57428 -5.4852,-4.15846 -8.39612,-5.4654c-2.91092,-1.30694 -5.73273,-2.31685 -7.84166,-3.40597c-2.00992,-1.03961 -3.07924,-2.10893 -3.56439,-3.24756c-0.16832,-2.04953 -0.23763,-3.87133 -0.23763,-5.94065c0.16832,-0.21782 0.46535,-0.39604 0.63367,-0.63367c0.50496,-0.71288 0.9109,-1.53467 1.34655,-2.45547c0.70298,-1.49506 1.21783,-3.27726 1.50497,-5.06936c0.51486,-0.32674 1.11882,-0.35644 1.50497,-0.8713c0.9505,-1.26734 1.53467,-2.92082 1.8218,-5.22777c0.17822,-1.39605 0.0198,-2.703 -0.39604,-3.80202c-0.11881,-0.30693 -0.55446,-0.49505 -0.71288,-0.79209c0.55446,-1.29704 1.18813,-2.52478 1.34655,-4.11885c0.22773,-2.36636 0.0396,-5.01985 -0.63367,-7.60403c-0.67327,-2.58418 -1.8416,-5.14856 -3.88123,-7.12878c-1.64358,-1.60397 -3.96043,-2.54458 -6.57432,-2.93072l-1.02971,-2.37626c-0.40594,-0.9109 -1.30694,-1.49506 -2.29705,-1.50497c-3.50498,0 -7.23769,0.34654 -10.69317,1.42576c-0.901,-2.00002 -2.08913,-3.90103 -3.72281,-5.4654c-2.16834,-2.08913 -5.21787,-3.33667 -8.71296,-3.72281l-1.42576,-3.40597c-0.40594,-0.9109 -1.30694,-1.49506 -2.29705,-1.50497zM88.93072,39.62889l1.34655,2.93072c0.40594,0.9109 1.30694,1.49506 2.29705,1.50497c3.14855,0 5.28718,1.00001 6.97036,2.61389c1.68319,1.61388 2.88122,3.91093 3.56439,6.49511c0.68317,2.58418 0.8713,5.40599 0.63367,7.76245c-0.23763,2.35646 -1.03961,4.25747 -1.50497,4.83173c-0.48515,0.61387 -0.65347,1.41586 -0.47525,2.16834c0.18812,0.76238 0.71288,1.39605 1.42576,1.71289c-0.0396,-0.0198 0,-0.0198 0.07921,0.15842c0.13862,0.32674 0.28713,1.05942 0.23763,1.98022c-0.0099,0.07921 0.0099,0.07921 0,0.15842c-0.34654,2.09903 -0.9406,3.34657 -1.34655,3.88123c-0.20792,0.27723 -0.35644,0.36634 -0.39604,0.39604c-1.19803,0.09901 -2.14854,1.02971 -2.29705,2.21784c-0.20792,1.89111 -0.9406,4.35648 -1.8218,6.25749c-0.43565,0.9505 -0.9604,1.75249 -1.34655,2.29705c-0.29703,0.40594 -0.59407,0.63367 -0.55446,0.63367c-0.85149,0.44555 -1.36635,1.33665 -1.34655,2.29705c0,3.29706 -0.0198,5.94065 0.23763,9.82188c0.0198,0.24753 0.06931,0.48515 0.15842,0.71288c1.35645,3.56439 4.41589,5.71293 7.76245,7.36641c3.34657,1.65348 7.12878,2.89112 10.69317,4.43569c3.56439,1.54457 6.88126,3.40597 9.26742,5.86144c1.8515,1.90101 2.98023,4.41589 3.6436,7.52483h-80.31761c0.66337,-3.10894 1.7921,-5.62382 3.6436,-7.52483c2.38616,-2.45547 5.70303,-4.31687 9.26742,-5.86144c3.56439,-1.54457 7.34661,-2.7822 10.69317,-4.43569c3.34657,-1.65348 6.406,-3.80202 7.76245,-7.36641c0.08911,-0.22773 0.13862,-0.46535 0.15842,-0.71288c0.25743,-3.6436 0.23763,-6.52482 0.23763,-9.82188c0.0198,-0.9604 -0.49505,-1.8515 -1.34655,-2.29705c0,0 -0.0198,-0.0297 -0.07921,-0.07921c-0.0198,-0.0099 -0.0495,0.0099 -0.07921,0c-0.11881,-0.09901 -0.28713,-0.30693 -0.47525,-0.55446c-0.40594,-0.53466 -0.9604,-1.36635 -1.42576,-2.29705c-0.9307,-1.8515 -1.69309,-4.19806 -1.90101,-6.17828c-0.11881,-1.10892 -0.9604,-2.00992 -2.05943,-2.21784c-0.24753,-0.0495 -1.54457,0.0099 -1.98022,-4.35648c-0.17822,-1.95051 0.74258,-2.52478 0.63367,-2.45547c1.05942,-0.67327 1.46536,-2.01982 0.9505,-3.16835c-1.62378,-3.73271 -2.13863,-7.58423 -1.58417,-11.16843c0.57426,-0.64357 0.79209,-1.54457 0.55446,-2.37626c0.47525,-1.57427 1.14853,-3.04953 2.05943,-4.43569c3.15845,-4.78223 9.0991,-8.28721 18.05958,-8.71296zM115.86168,52.38149l0.79209,1.74259c0.37624,0.9406 1.28714,1.56437 2.29705,1.58417c2.25745,0 3.6634,0.68317 4.83173,1.8218c1.16833,1.13863 2.02972,2.83171 2.53468,4.75252c0.50496,1.92081 0.64357,4.00994 0.47525,5.78223c-0.16832,1.7723 -0.77228,3.21785 -1.02971,3.56439c-0.44555,0.57426 -0.61387,1.30694 -0.47525,2.01982c0.12871,0.71288 0.56436,1.33665 1.18813,1.70299c0.08911,0.22773 0.15842,0.72278 0.07921,1.34655c-0.21782,1.74259 -0.60397,2.59409 -0.79209,2.85151c-1.18813,0.14852 -2.11883,1.09902 -2.21784,2.29705c-0.08911,1.30694 -0.69307,3.12874 -1.34655,4.5149c-0.32674,0.69308 -0.66337,1.24754 -0.9505,1.66338c-0.21782,0.30693 -0.41584,0.54456 -0.39604,0.55446c-0.68317,0.46535 -1.09902,1.23764 -1.10892,2.05943c0,2.79211 -0.0297,4.94064 0.23763,7.84166c0.0297,0.21783 0.07921,0.42575 0.15842,0.63367c1.07922,2.98023 3.51489,4.84163 6.09907,6.17828c2.58418,1.33665 5.4951,2.28715 8.15849,3.48518c2.66339,1.19803 5.07926,2.61389 6.81195,4.43569c1.20793,1.26734 2.00992,2.87132 2.53468,4.83173h-14.65361c-0.07921,0 -0.15842,0 -0.23763,0c-0.79209,-1.29704 -1.68318,-2.44557 -2.6931,-3.48518c-3.12874,-3.21785 -7.02977,-5.23767 -10.85159,-6.89116c-3.82182,-1.65348 -7.58423,-2.93072 -10.45555,-4.35648c-2.7723,-1.37625 -4.42579,-2.84161 -5.14856,-4.5149c-0.18812,-3.03963 -0.23763,-5.31688 -0.23763,-8.00008c0.26733,-0.30693 0.70298,-0.53466 0.9505,-0.8713c0.64357,-0.901 1.27724,-1.91091 1.8218,-3.08914c0.9505,-2.05943 1.51487,-4.45549 1.90101,-6.81195c0.69308,-0.41584 1.52477,-0.39604 2.05943,-1.10892c1.10892,-1.47526 1.8713,-3.51489 2.29705,-6.3367c0.0297,-0.0495 0.05941,-0.10891 0.07921,-0.15842c0.15842,-1.74259 -0.08911,-3.29706 -0.63367,-4.5941c-0.13861,-0.32674 -0.60397,-0.40594 -0.79209,-0.71288c0.82179,-1.66338 1.36635,-3.53469 1.58417,-5.70303c0.25743,-2.53468 0.16832,-5.29708 -0.39604,-8.07929c2.27725,-0.62377 4.95054,-0.85149 7.52483,-0.9505zM60.25718,52.4607l0.9505,1.8218c0.35644,0.76238 1.06932,1.29704 1.90101,1.42576c-0.33664,3.6832 0.23763,7.50502 1.58417,11.16843c-0.9604,1.31684 -1.73269,3.07924 -1.50497,5.54461c0.44555,4.42579 2.42577,6.52482 4.35648,7.68324c0.40594,2.42577 1.13863,4.88123 2.13863,6.89116c0.58416,1.16833 1.22773,2.20794 1.90101,3.08914c0.24753,0.32674 0.68317,0.50496 0.9505,0.79209c0,2.68319 -0.0495,5.08916 -0.23763,7.92087c-0.72278,1.67328 -2.37626,3.13864 -5.14856,4.5149c-2.87131,1.42576 -6.63373,2.703 -10.45555,4.35648c-3.82182,1.65348 -7.72285,3.6733 -10.85159,6.89116c-1.06932,1.09902 -2.02972,2.32676 -2.85151,3.72281c-0.0297,0 -0.0495,0 -0.07921,0h-14.5744c0.53466,-1.96041 1.31684,-3.56439 2.53468,-4.83173c1.75249,-1.8218 4.19806,-3.23766 6.89116,-4.43569c2.6931,-1.19803 5.55451,-2.14854 8.15849,-3.48518c2.60399,-1.33665 5.08916,-3.10894 6.17828,-6.09907c0.08911,-0.22773 0.13862,-0.46535 0.15842,-0.71288c0.25743,-3.13864 0.31683,-5.22777 0.31683,-7.76245c0.0198,-0.901 -0.42575,-1.74259 -1.18813,-2.21784c-0.07921,-0.08911 -0.24753,-0.26733 -0.39604,-0.47525c-0.29703,-0.42575 -0.68317,-1.01981 -1.02971,-1.74259c-0.69307,-1.43566 -1.29704,-3.29706 -1.50497,-4.83173c-0.16832,-1.12872 -1.07922,-2.00992 -2.21784,-2.13863c-0.18812,-0.25743 -0.57426,-1.10892 -0.79209,-2.85151c-0.07921,-0.72278 0.05941,-1.13863 0.15842,-1.34655c1.02971,-0.70298 1.39605,-2.03962 0.8713,-3.16835c-2.09903,-4.75252 -1.73269,-9.70306 0.71288,-13.46548c2.24755,-3.46538 6.61393,-5.86144 13.06943,-6.25749z"></path></g></g></svg>