<svg xmlns="http://www.w3.org/2000/svg" x="0px" y="0px"
viewBox="0 0 172 172"
style=" fill:#000000;"><g fill="none" fill-rule="nonzero" stroke="none" stroke-width="1" stroke-linecap="butt" stroke-linejoin="miter" stroke-miterlimit="10" stroke-dasharray="" stroke-dashoffset="0" font-family="none" font-weight="none" font-size="none" text-anchor="none" style="mix-blend-mode: normal"><path d="M0,172v-172h172v172z" fill="none"></path><path d="M86,172c-47.49649,0 -86,-38.50351 -86,-86v0c0,-47.49649 38.50351,-86 86,-86v0c47.49649,0 86,38.50351 86,86v0c0,47.49649 -38.50351,86 -86,86z" fill="#a3e331"></path><g fill="#ffffff"><path d="M80.2687,28.68708c-3.16368,0 -5.7313,2.56762 -5.7313,5.7313v45.85039h-20.05955c-1.58265,0 -2.86565,1.283 -2.86565,2.86565c0.00011,0.75997 0.30211,1.48878 0.83955,2.02611c0.05728,0.0585 0.11703,0.11452 0.1791,0.1679l29.26097,27.59308l0.1903,0.1791c1.06087,0.99755 2.46168,1.55387 3.91788,1.55596c1.45621,-0.00209 2.85701,-0.55841 3.91788,-1.55596l0.07836,-0.06717c0.01883,-0.02225 0.03748,-0.04463 0.05597,-0.06717l29.24978,-27.58188c0.05804,-0.04997 0.11406,-0.10225 0.16791,-0.15672l0.04477,-0.03358c0.01129,-0.0111 0.02248,-0.02229 0.03359,-0.03358c0.53744,-0.53733 0.83943,-1.26613 0.83954,-2.02611c0,-1.58265 -1.283,-2.86565 -2.86565,-2.86565h-20.05955v-45.85039c0,-3.16368 -2.56762,-5.7313 -5.7313,-5.7313h-5.7313zM34.41831,131.85047c-2.06691,-0.02923 -3.98945,1.05671 -5.03144,2.842c-1.04199,1.78529 -1.04199,3.99332 0,5.77861c1.04199,1.78529 2.96452,2.87123 5.03144,2.842h103.16338c2.06691,0.02923 3.98945,-1.05671 5.03144,-2.842c1.04199,-1.78529 1.04199,-3.99332 0,-5.77861c-1.04199,-1.78529 -2.96452,-2.87123 -5.03144,-2.842z"></path></g></g></svg>