<svg xmlns="http://www.w3.org/2000/svg" x="0px" y="0px"
viewBox="0 0 172 172"
style=" fill:#000000;"><g fill="none" fill-rule="nonzero" stroke="none" stroke-width="1" stroke-linecap="butt" stroke-linejoin="miter" stroke-miterlimit="10" stroke-dasharray="" stroke-dashoffset="0" font-family="none" font-weight="none" font-size="none" text-anchor="none" style="mix-blend-mode: normal"><path d="M0,172v-172h172v172z" fill="none"></path><g fill="#ff3232"><path d="M171.23406,155.99594l-82.25094,-142.47781c-1.23625,-2.12313 -4.73,-2.12313 -5.96625,0l-82.56,143.00187c-0.60469,1.06156 -0.60469,2.37844 0,3.44c0.61812,1.06156 1.76031,1.72 2.98312,1.72h165.12c0.02688,0 0.05375,0 0.06719,0c1.90813,0 3.44,-1.53187 3.44,-3.44c0,-0.86 -0.30906,-1.63937 -0.83312,-2.24406zM80.81313,66.27375c0,-0.73906 0.49719,-1.23625 1.23625,-1.23625h7.90125c0.73906,0 1.22281,0.49719 1.22281,1.23625v49.74563c0,0.73906 -0.48375,1.23625 -1.22281,1.23625h-7.90125c-0.73906,0 -1.23625,-0.49719 -1.23625,-1.23625zM91.42875,137.385c0,0.73906 -0.49719,1.22281 -1.22281,1.22281h-8.39844c-0.73906,0 -1.22281,-0.49719 -1.22281,-1.22281v-9.01656c0,-0.73906 0.49719,-1.22281 1.22281,-1.22281h8.39844c0.73906,0 1.22281,0.48375 1.22281,1.22281z"></path></g></g></svg>