<svg xmlns="http://www.w3.org/2000/svg" x="0px" y="0px"
viewBox="0 0 172 172"
style=" fill:#000000;"><g fill="none" fill-rule="nonzero" stroke="none" stroke-width="1" stroke-linecap="butt" stroke-linejoin="miter" stroke-miterlimit="10" stroke-dasharray="" stroke-dashoffset="0" font-family="none" font-weight="none" font-size="none" text-anchor="none" style="mix-blend-mode: normal"><path d="M0,172v-172h172v172z" fill="none"></path><path d="M86,172c-47.49649,0 -86,-38.50351 -86,-86v0c0,-47.49649 38.50351,-86 86,-86v0c47.49649,0 86,38.50351 86,86v0c0,47.49649 -38.50351,86 -86,86z" fill="#8effa7"></path><g fill="#ffffff"><path d="M86.05912,25.46052c-0.31568,-0.0071 -0.63023,0.04017 -0.92987,0.13975l-57.792,19.264c-1.12403,0.375 -1.88187,1.42732 -1.88125,2.61225v96.32c0.00015,1.51982 1.23218,2.75185 2.752,2.752h16.04975c0.29719,0.04912 0.60043,0.04912 0.89762,0h81.66237c0.29719,0.04912 0.60043,0.04912 0.89763,0h0.043h16.03363c1.51982,-0.00015 2.75185,-1.23218 2.752,-2.752v-96.32c0.00062,-1.18493 -0.75723,-2.23725 -1.88125,-2.61225l-57.792,-19.264c-0.262,-0.08703 -0.53561,-0.13414 -0.81163,-0.13975zM86,31.11502l55.04,18.34487v91.58463h-11.008v-77.056c-0.00015,-1.51982 -1.23218,-2.75185 -2.752,-2.752h-82.56c-1.51982,0.00015 -2.75185,1.23218 -2.752,2.752v77.056h-11.008v-91.58463zM47.472,66.74052h77.056v74.304h-8.256v-24.768c-0.00015,-1.51982 -1.23218,-2.75185 -2.752,-2.752h-11.008v-24.768c-0.00015,-1.51982 -1.23218,-2.75185 -2.752,-2.752h-27.52c-1.51982,0.00015 -2.75185,1.23218 -2.752,2.752v24.768h-11.008c-1.51982,0.00015 -2.75185,1.23218 -2.752,2.752v24.768h-8.256zM74.992,91.50852h22.016v22.016h-11.008h-11.008zM61.232,119.02852h11.008h11.008v22.016h-22.016zM88.752,119.02852h11.008h11.008v22.016h-22.016z"></path></g></g></svg>