<svg xmlns="http://www.w3.org/2000/svg" x="0px" y="0px"
viewBox="0 0 172 172"
style=" fill:#000000;"><g fill="none" fill-rule="nonzero" stroke="none" stroke-width="1" stroke-linecap="butt" stroke-linejoin="miter" stroke-miterlimit="10" stroke-dasharray="" stroke-dashoffset="0" font-family="none" font-weight="none" font-size="none" text-anchor="none" style="mix-blend-mode: normal"><path d="M0,172v-172h172v172z" fill="none"></path><path d="M86,172c-47.49649,0 -86,-38.50351 -86,-86v0c0,-47.49649 38.50351,-86 86,-86v0c47.49649,0 86,38.50351 86,86v0c0,47.49649 -38.50351,86 -86,86z" fill="#a3a5fd"></path><g fill="#ffffff"><path d="M30.55909,24.0849c-1.45785,0.00015 -2.63963,1.18193 -2.63977,2.63977v26.39772h-2.63977c-1.45785,0.00015 -2.63963,1.18193 -2.63977,2.63977v26.39772c-0.952,-0.01346 -1.8375,0.48671 -2.31742,1.30899c-0.47993,0.82228 -0.47993,1.83928 0,2.66156c0.47993,0.82228 1.36543,1.32245 2.31742,1.30899h22.87115c-10.97806,7.27531 -14.81778,17.64317 -14.81778,17.64317c-0.22728,0.68287 -0.16591,1.42893 0.16989,2.06549c0.3358,0.63656 0.91693,1.10844 1.60886,1.3064l5.74872,1.6447c-1.49888,2.67076 -2.38198,5.747 -2.38198,9.0175c0,10.17456 8.30384,18.4784 18.4784,18.4784c10.17456,0 18.4784,-8.30384 18.4784,-18.4784h11.26543h20.57166c0.31458,2.6048 1.119,4.53424 2.43354,5.87762c1.72596,1.76384 3.97439,2.0417 5.32595,2.0417c0.57721,0 1.12441,-0.13326 1.6447,-0.32482c2.90494,6.41642 9.36255,10.8839 16.8337,10.8839c10.17288,0 18.4784,-8.30552 18.4784,-18.4784c0,-2.12453 -0.39777,-4.15537 -1.0621,-6.06323c0.94086,-0.26202 1.94773,-0.78383 2.64493,-1.69626c0.79411,-1.03937 1.05694,-2.30817 1.05694,-3.53688c0,-1.26665 -0.32748,-2.30535 -0.99507,-3.81529c-0.66759,-1.50995 -1.7235,-3.26551 -3.3255,-4.94957c-2.99245,-3.14575 -7.97386,-5.90868 -15.25087,-6.2643c-0.16037,-14.47264 -7.3021,-25.99619 -11.84804,-31.89897c0.78819,-0.10875 1.51605,-0.2818 2.19122,-0.5362c1.32316,-0.49857 2.46753,-1.40836 3.13989,-2.50572c1.34471,-2.19471 1.03632,-4.30969 1.03632,-6.05292c0,-1.73771 0.30782,-3.84308 -1.03632,-6.03745c-0.67207,-1.09719 -1.81637,-2.01187 -3.13989,-2.51088c-1.32351,-0.49901 -2.82463,-0.68646 -4.65569,-0.68572c-3.6641,0 -7.00439,0.79544 -9.64135,2.26855c-1.38163,0.77184 -2.62857,1.80072 -3.5111,3.04708c-0.1584,-0.02659 -0.3189,-0.03867 -0.47949,-0.03609h-13.19886c-0.952,-0.01346 -1.8375,0.48671 -2.31742,1.30899c-0.47993,0.82228 -0.47993,1.83928 0,2.66156c0.47993,0.82228 1.36543,1.32245 2.31742,1.30899h12.52345c0.14798,0.7037 0.4063,1.36623 0.7579,1.97983c-0.09582,0.37063 -0.1099,0.75767 -0.04125,1.13428c2.56799,14.12397 1.88452,28.95788 -1.79422,39.93171c-1.83937,5.48691 -4.42025,9.98014 -7.54294,13.00809c-3.12269,3.02795 -6.69531,4.66085 -11.11592,4.66085c-2.96538,0 -5.35886,-2.00439 -6.27461,-6.76957c-0.91576,-4.76518 0.17164,-12.11877 5.22283,-20.95835c0.06374,-0.11433 0.11889,-0.23324 0.16499,-0.35575c1.01717,-0.31868 1.97275,-0.67804 2.80476,-1.17552c1.27932,-0.76495 2.6707,-2.11889 2.6707,-4.08855c0,-1.84132 -0.44859,-3.67307 -1.26833,-5.31564c-0.40987,-0.82129 -0.91065,-1.59747 -1.6447,-2.27887c-0.73405,-0.68139 -1.81841,-1.30957 -3.12957,-1.30957h-24.90769c-0.25953,0 -0.50198,0.04292 -0.74244,0.08765v-13.27104h2.63977c1.45785,-0.00015 2.63963,-1.18193 2.63977,-2.63977v-29.03749c-0.00015,-1.45785 -1.18193,-2.63963 -2.63977,-2.63977zM33.19886,29.36444h23.75795v23.75795h-2.63977h-21.11818zM118.10465,47.84285c0.00172,0 0.00344,0 0.00516,0c1.4317,-0.00058 2.3352,0.18133 2.78413,0.35059c0.44893,0.16926 0.44546,0.22203 0.50527,0.31966c0.11961,0.19529 0.25779,1.38435 0.25779,3.28425c0,1.90494 -0.13874,3.10028 -0.25779,3.29456c-0.05953,0.09714 -0.05599,0.15036 -0.50527,0.31966c-0.44941,0.16929 -1.35707,0.35059 -2.78929,0.35059c-1.43334,0 -2.79183,-0.16866 -3.99575,-0.45371c-0.02014,-0.00477 -0.03666,-0.01064 -0.05672,-0.01547l-2.01592,-0.67541c-0.35016,-0.14678 -0.706,-0.28925 -1.00023,-0.45371c-1.63916,-0.91621 -2.10872,-1.82224 -2.10872,-2.36651c0,-0.53978 0.46926,-1.44033 2.10872,-2.3562c1.63947,-0.91588 4.20192,-1.5983 7.06861,-1.5983zM27.91931,58.40194h2.63977h21.11818v21.82968c-0.00196,0.08615 -0.01547,0.17159 -0.01547,0.25779c0,0.04189 0.0142,0.08194 0.01547,0.12374v1.54674h-23.75795zM110.00488,59.51044l0.18045,0.06187c0.67401,0.27595 1.38261,0.50732 2.11904,0.70635l1.14459,0.38153c0.53554,0.55065 13.24231,14.13813 13.42571,32.38877c-10.95523,1.66323 -20.82629,9.95056 -22.22668,20.78821h-7.08408c0.39919,-0.33886 0.91031,-0.49902 1.28895,-0.86618c3.93845,-3.81896 6.84095,-9.05989 8.87314,-15.12198c3.67998,-10.97753 4.16044,-24.76403 2.27887,-38.33856zM58.11686,76.89581h24.07761c0.09957,0.11106 0.25946,0.30174 0.43309,0.64963c0.34189,0.68507 0.52175,1.67457 0.59807,2.4851c-0.49917,0.29459 -1.55558,0.70626 -2.95943,1.03632c-2.83255,0.66594 -7.02838,1.07756 -11.60056,1.07756c-4.56921,0 -7.97731,-0.42835 -9.93524,-1.03116c-0.95911,-0.29529 -1.51848,-0.63776 -1.71688,-0.80431c0.03437,-0.83991 0.28996,-2.00108 0.67026,-2.76351c0.17359,-0.34802 0.33359,-0.53856 0.43309,-0.64963zM57.46723,87.43943h10.46113c0.25413,0.00221 0.47686,0.01547 0.73728,0.01547c0.26207,0 0.50857,-0.01318 0.76821,-0.01547h7.39343c-3.73393,7.9222 -5.28639,15.11975 -4.22776,20.62838c0.42717,2.22279 1.3612,4.09903 2.4851,5.76935h-4.55773l-33.40962,-9.54339c1.39811,-3.30727 5.9803,-12.63807 20.34996,-16.85433zM130.87043,97.99852c6.91157,0 10.70111,2.3097 12.972,4.69694c1.13545,1.19362 1.8757,2.4389 2.32011,3.44408c0.44442,1.00518 0.54651,1.99581 0.54651,1.68079c0,0.24273 0.01929,0.11685 0.01031,0.15983c-0.50541,0.07727 -2.1215,-0.02244 -4.25354,-0.32997c-4.38818,-0.63323 -10.94955,-1.65891 -17.85455,1.09303c0,0.00172 0,0.00344 0,0.00516c-5.92524,2.36713 -8.73327,6.42466 -10.28067,9.41965c-0.7737,1.4975 -1.32485,2.72812 -1.69626,3.27394c-0.37139,0.54569 -0.04968,0.31451 -0.24232,0.31451c-0.78666,0 -1.1778,-0.06613 -1.55705,-0.45371c-0.37713,-0.38541 -1.0749,-1.58585 -1.08272,-4.77943c0.11167,-3.88684 1.62774,-7.419 3.99575,-10.35286c4.03052,-4.86867 10.57562,-8.17195 17.12243,-8.17195zM43.3197,111.55313l6.01682,1.72204c-1.71971,1.45781 -2.93881,3.43415 -2.93881,5.84153c0,4.34235 3.57697,7.91932 7.91932,7.91932c4.34235,0 7.91932,-3.57697 7.91932,-7.91932c0,-0.95134 -0.70704,-1.6007 -1.02085,-2.44901l6.24884,1.78391c0.01122,0.2233 0.05156,0.43879 0.05156,0.6651c0,7.32185 -5.87701,13.19886 -13.19886,13.19886c-7.32185,0 -13.19886,-5.87701 -13.19886,-13.19886c0,-2.49548 0.68771,-4.81169 1.88187,-6.79535c0.14649,-0.23756 0.25438,-0.49686 0.31966,-0.76821zM134.67541,112.22854c2.49921,0.01096 4.87803,0.33799 7.03767,0.64963c0.2878,0.04153 0.54145,0.06614 0.81977,0.10827c0.96745,1.83341 1.53643,3.90252 1.53643,6.13025c0,7.31825 -5.88062,13.19886 -13.19886,13.19886c-6.17243,0 -11.27712,-4.22402 -12.73999,-9.90946c0.29534,-0.60463 0.57422,-1.20985 0.8868,-1.81484c1.06758,-2.06631 2.35042,-4.12272 5.25376,-5.81575c-0.8296,1.25101 -1.31989,2.74226 -1.31989,4.34119c0,4.34235 3.57697,7.91932 7.91932,7.91932c4.34235,0 7.91932,-3.57697 7.91932,-7.91932c0,-2.95919 -1.68181,-5.52967 -4.11433,-6.88816zM54.31704,116.47692c1.49155,0 2.63977,1.14822 2.63977,2.63977c0,1.49155 -1.14822,2.63977 -2.63977,2.63977c-1.49155,0 -2.63977,-1.14822 -2.63977,-2.63977c0,-1.49155 1.14822,-2.63977 2.63977,-2.63977zM130.87043,116.47692c1.49155,0 2.63977,1.14822 2.63977,2.63977c0,1.49155 -1.14822,2.63977 -2.63977,2.63977c-1.49155,0 -2.63977,-1.14822 -2.63977,-2.63977c0,-1.49155 1.14822,-2.63977 2.63977,-2.63977z"></path></g></g></svg>