<svg xmlns="http://www.w3.org/2000/svg" x="0px" y="0px"
viewBox="0 0 172 172"
style=" fill:#000000;"><g fill="none" fill-rule="nonzero" stroke="none" stroke-width="1" stroke-linecap="butt" stroke-linejoin="miter" stroke-miterlimit="10" stroke-dasharray="" stroke-dashoffset="0" font-family="none" font-weight="none" font-size="none" text-anchor="none" style="mix-blend-mode: normal"><path d="M0,172v-172h172v172z" fill="none"></path><path d="M86,172c-47.49649,0 -86,-38.50351 -86,-86v0c0,-47.49649 38.50351,-86 86,-86v0c47.49649,0 86,38.50351 86,86v0c0,47.49649 -38.50351,86 -86,86z" fill="#83fafa"></path><g id="original-icon" fill="#ffffff" opacity="0" visibility="hidden"><path d="M39.09091,43v27.36364h-3.90909v7.81818h7.81818c0,0.65152 -0.28825,1.37459 -1.443,2.6646c-1.15476,1.29 -3.04588,2.8569 -5.10014,4.72603c-4.10853,3.73825 -9.09322,9.26383 -9.09322,17.61381v2.54244l2.32866,1.03072c0,0 1.45555,0.60808 2.61879,1.0918c-0.66141,1.70988 -1.03835,3.56453 -1.03835,5.51243c0,8.58958 7.04679,15.63636 15.63636,15.63636c7.44328,0 13.70974,-5.29838 15.25462,-12.29989c2.41858,0.34448 4.80853,0.57262 7.1005,0.57262h21.92756c4.49556,0 8.77849,-1.67129 12.18537,-4.55806c0.17134,-0.06079 2.68669,-0.82805 6.28356,-1.76367c-0.12364,0.79043 -0.20614,1.5911 -0.20614,2.41264c0,8.58958 7.04679,15.63636 15.63636,15.63636c8.58958,0 15.63636,-7.04679 15.63636,-15.63636c0,-2.25738 -0.5049,-4.39732 -1.37429,-6.34464c0.46874,-0.00558 0.90031,-0.04581 1.37429,-0.04581h3.90909v-6.27592l-0.42756,-0.83221c-1.66149,-3.26219 -4.73093,-6.30791 -8.73437,-8.99396c-3.16678,-2.1247 -6.93738,-3.88618 -11.04013,-4.55043c-1.15654,-5.42633 -4.71828,-18.7138 -14.36133,-31.59339h7.19975v-11.72727h-9.77273c-2.54825,0 -4.69682,1.63693 -5.50479,3.90909h-12.08612v7.81818h9.8109c4.12133,4.49435 7.20279,9.21892 9.62766,13.71236c-0.55432,5.76582 -5.35616,13.37574 -10.63548,19.33168c-5.17095,5.8337 -9.58088,9.32442 -10.36062,9.95597h-10.16974c-1.67682,0 -2.86396,-0.40159 -3.32883,-0.72532c-0.46488,-0.32373 -0.58026,-0.32082 -0.58026,-1.3972c0,-2.36875 1.30905,-4.63698 3.19141,-7.30664c1.55456,-2.20475 3.37116,-4.78768 4.06943,-8.10831c0.36404,-0.60658 0.55666,-1.30056 0.55735,-2.00799c0,-2.84902 -1.59202,-5.35192 -3.90909,-6.71875v-28.46307zM46.90909,50.81818h7.81818v7.81818h7.81818v-7.81818h7.81818v19.54545h-23.45455zM50.81818,78.18182h23.45455c0,0.64353 -1.16467,2.73727 -3.19141,5.61168c-2.02673,2.87441 -4.62678,6.71364 -4.62678,11.81126c0,3.1689 1.59014,6.18737 3.93199,7.81818c2.34185,1.63082 5.06264,2.12252 7.79528,2.12252h11.72727c0.88433,0.0011 1.74292,-0.29765 2.43555,-0.84748c0,0 6.09874,-4.84136 12.21591,-11.74254c3.51087,-3.96085 7.13916,-8.60209 9.62766,-13.67418c1.68007,4.78099 2.43378,8.37507 2.62642,9.44443l-17.83523,17.5451v-0.00763c-2.08182,2.04436 -4.87601,3.19141 -7.78764,3.19141h-21.92756c-6.62184,0 -15.94689,-2.40258 -23.38583,-4.88636c-2.69255,-0.89901 -4.56277,-1.59482 -6.08505,-2.19123c-0.24336,-0.12573 -0.49927,-0.22553 -0.76349,-0.29776c-1.29685,-0.52211 -2.34471,-0.97431 -3.16087,-1.32084c0.79043,-3.78387 2.82221,-6.63825 5.856,-9.39862c1.85482,-1.68766 3.87279,-3.31345 5.64986,-5.29865c1.77706,-1.9852 3.44336,-4.62169 3.44336,-7.87926zM122.62482,93.97852c2.80915,0.36242 5.87274,1.62874 8.49769,3.38991c1.30734,0.87714 1.60371,1.58908 2.58824,2.55007c-0.23093,0.01459 -0.44225,0.03791 -0.67187,0.05345c-0.44737,-0.1773 -0.92363,-0.27048 -1.40483,-0.27486c-0.72443,-0.0031 -1.43548,0.19515 -2.0538,0.57262c-5.39519,0.48409 -10.01848,1.179 -14.23917,1.924c-0.04339,0.00691 -0.08666,0.01454 -0.12979,0.02291c-0.39157,0.06942 -0.79708,0.1364 -1.17578,0.20614zM130.16815,107.48473c1.65668,1.42993 2.74095,3.49087 2.74095,5.87891c0,4.36515 -3.45303,7.81818 -7.81818,7.81818c-4.36515,0 -7.81818,-3.45303 -7.81818,-7.81818c0,-1.65656 0.52436,-3.14709 1.38956,-4.40536c3.4086,-0.60499 7.30192,-1.10847 11.50586,-1.47354zM39.62536,110.59215c1.33765,0.48543 2.27101,0.88596 3.7793,1.38956c3.42062,1.14211 7.22205,2.25921 11.09357,3.19904c-0.8079,3.46412 -3.85431,6.00106 -7.58913,6.00106c-4.36515,0 -7.81818,-3.45303 -7.81818,-7.81818c0,-0.98538 0.19181,-1.91199 0.53445,-2.77148z"></path></g><g id="subtracted-icon" fill="#ffffff"><path d="M78.18182,43v28.46307c2.31707,1.36683 3.90909,3.86973 3.90909,6.71875c-0.00069,0.70743 -0.19331,1.40142 -0.55735,2.00799c-0.69827,3.32063 -2.51487,5.90356 -4.06943,8.10831c-1.88236,2.66966 -3.19141,4.93789 -3.19141,7.30664c0,1.07637 0.11538,1.07347 0.58026,1.3972c0.46487,0.32373 1.65202,0.72532 3.32883,0.72532h10.16974c0.77974,-0.63154 5.18967,-4.12227 10.36062,-9.95597c5.27931,-5.95594 10.08115,-13.56586 10.63548,-19.33168c-2.42488,-4.49343 -5.50633,-9.21801 -9.62766,-13.71236h-9.8109v-7.81818h12.08612c0.80797,-2.27216 2.95654,-3.90909 5.50479,-3.90909h9.77273v11.72727h-7.19975c9.64304,12.8796 13.20478,26.16707 14.36133,31.59339c4.10275,0.66424 7.87335,2.42572 11.04013,4.55043c0.03125,0.02097 0.06245,0.04196 0.09359,0.06297c-18.42015,1.02418 -34.36485,11.32259 -43.24204,26.30316c-0.37629,0.02357 -0.7545,0.0355 -1.13423,0.0355h-21.92756c-2.29197,0 -4.68191,-0.22814 -7.1005,-0.57262c-1.54487,7.00151 -7.81133,12.29989 -15.25462,12.29989c-8.58958,0 -15.63636,-7.04679 -15.63636,-15.63636c0,-1.9479 0.37694,-3.80254 1.03835,-5.51243c-1.16323,-0.48371 -2.61879,-1.0918 -2.61879,-1.0918l-2.32866,-1.03072v-2.54244c0,-8.34998 4.98469,-13.87556 9.09322,-17.61381c2.05427,-1.86912 3.94539,-3.43602 5.10014,-4.72603c1.15476,-1.29001 1.443,-2.01308 1.443,-2.6646h-7.81818v-7.81818h3.90909v-27.36364zM46.90909,70.36364h23.45455v-19.54545h-7.81818v7.81818h-7.81818v-7.81818h-7.81818zM47.37482,86.06108c-1.77706,1.9852 -3.79503,3.61099 -5.64986,5.29865c-3.03379,2.76037 -5.06557,5.61474 -5.856,9.39862c0.81616,0.34653 1.86401,0.79873 3.16087,1.32084c0.26423,0.07223 0.52013,0.17204 0.76349,0.29776c1.52228,0.59641 3.3925,1.29222 6.08505,2.19123c7.43894,2.48378 16.764,4.88636 23.38583,4.88636h21.92756c2.91163,0 5.70582,-1.14704 7.78764,-3.19141v0.00763l17.83523,-17.5451c-0.19264,-1.06936 -0.94634,-4.66344 -2.62642,-9.44443c-2.4885,5.0721 -6.1168,9.71334 -9.62766,13.67418c-6.11717,6.90118 -12.21591,11.74254 -12.21591,11.74254c-0.69263,0.54983 -1.55121,0.84858 -2.43555,0.84748h-11.72727c-2.73264,0 -5.45342,-0.4917 -7.79528,-2.12252c-2.34185,-1.63081 -3.93199,-4.64928 -3.93199,-7.81818c0,-5.09761 2.60005,-8.93685 4.62678,-11.81126c2.02673,-2.87441 3.19141,-4.96816 3.19141,-5.61168h-23.45455c0,3.25757 -1.6663,5.89406 -3.44336,7.87926zM39.09091,113.36364c0,4.36515 3.45303,7.81818 7.81818,7.81818c3.73483,0 6.78123,-2.53695 7.58913,-6.00106c-3.87153,-0.93983 -7.67295,-2.05693 -11.09357,-3.19904c-1.50828,-0.5036 -2.44164,-0.90413 -3.7793,-1.38956c-0.34264,0.85949 -0.53445,1.7861 -0.53445,2.77148z"></path></g><g><g id="Layer_1" fill="#ffffff"><path d="M138.6,187.6c-23.65,0 -43,-19.35 -43,-43c0,-23.65 19.35,-43 43,-43c23.65,0 43,19.35 43,43c0,23.65 -19.35,43 -43,43zM138.6,112.35c-17.7375,0 -32.25,14.5125 -32.25,32.25c0,17.7375 14.5125,32.25 32.25,32.25c17.7375,0 32.25,-14.5125 32.25,-32.25c0,-17.7375 -14.5125,-32.25 -32.25,-32.25zM133.225,155.35v10.75h10.75v-10.75zM143.975,149.975v-26.875h-10.75v26.875z"></path></g><g id="Layer_1" fill="#000000" opacity="0"><path d="M192.35,144.6c0,29.68613 -24.06387,53.75 -53.75,53.75c-29.68613,0 -53.75,-24.06387 -53.75,-53.75c0,-29.68613 24.06387,-53.75 53.75,-53.75c29.68613,0 53.75,24.06387 53.75,53.75z"></path></g></g></g></svg>