<!-- <svg xmlns="http://www.w3.org/2000/svg" x="0px" y="0px"
viewBox="0 0 226 226"
style=" fill:#000000;"><defs><radialGradient cx="52.62504" cy="39.51704" r="189.80233" gradientUnits="userSpaceOnUse" id="color-1_kDoeg22e5jUY_gr1"><stop offset="0" stop-color="#666666"></stop><stop offset="0.484" stop-color="#666666"></stop><stop offset="0.775" stop-color="#333333"></stop><stop offset="1" stop-color="#000000"></stop></radialGradient><radialGradient cx="113" cy="207.67517" r="75.9925" gradientUnits="userSpaceOnUse" id="color-2_kDoeg22e5jUY_gr2"><stop offset="0" stop-color="#000000"></stop><stop offset="1" stop-color="#000000" stop-opacity="0"></stop></radialGradient><radialGradient cx="113" cy="94.16667" r="44.72917" gradientUnits="userSpaceOnUse" id="color-3_kDoeg22e5jUY_gr3"><stop offset="0" stop-color="#000000"></stop><stop offset="1" stop-color="#000000" stop-opacity="0"></stop></radialGradient><linearGradient x1="87.44788" y1="63.90621" x2="140.00229" y2="116.46063" gradientUnits="userSpaceOnUse" id="color-4_kDoeg22e5jUY_gr4"><stop offset="0" stop-color="#0b0c2d"></stop><stop offset="1" stop-color="#3c457c"></stop></linearGradient><linearGradient x1="80.07463" y1="146.94708" x2="145.431" y2="212.30346" gradientUnits="userSpaceOnUse" id="color-5_kDoeg22e5jUY_gr5"><stop offset="0" stop-color="#0b0c2d"></stop><stop offset="1" stop-color="#3c457c"></stop></linearGradient></defs><g fill="none" fill-rule="nonzero" stroke="none" stroke-width="1" stroke-linecap="butt" stroke-linejoin="miter" stroke-miterlimit="10" stroke-dasharray="" stroke-dashoffset="0" font-family="none" font-weight="none" font-size="none" text-anchor="none" style="mix-blend-mode: normal"><path d="M0,226v-226h226v226z" fill="none"></path><g><path d="M207.16667,113c0,52.00354 -42.16312,94.16667 -94.16667,94.16667c-52.00354,0 -94.16667,-42.16312 -94.16667,-94.16667c0,-52.00354 42.16312,-94.16667 94.16667,-94.16667c52.00354,0 94.16667,42.16312 94.16667,94.16667z" fill="url(#color-1_kDoeg22e5jUY_gr1)"></path><path d="M113,207.16667c27.28479,0 51.78225,-11.67667 68.98179,-30.21808c-11.64842,-26.55029 -38.13279,-45.11525 -68.98179,-45.11525c-30.849,0 -57.33337,18.56496 -68.98179,45.11525c17.19954,18.54142 41.697,30.21808 68.98179,30.21808z" fill="url(#color-2_kDoeg22e5jUY_gr2)"></path><circle cx="24" cy="20" transform="scale(4.70833,4.70833)" r="9.5" fill="url(#color-3_kDoeg22e5jUY_gr3)"></circle><circle cx="24" cy="19" transform="scale(4.70833,4.70833)" r="8" fill="url(#color-4_kDoeg22e5jUY_gr4)"></circle><path d="M113,207.16667c23.61229,0 45.13879,-8.75279 61.66975,-23.11321c-9.37429,-24.98713 -33.41033,-42.80346 -61.66975,-42.80346c-28.25942,0 -52.29546,17.81633 -61.66975,42.80346c16.53096,14.36042 38.05746,23.11321 61.66975,23.11321z" fill="url(#color-5_kDoeg22e5jUY_gr5)"></path></g></g></svg> -->
 
<svg xmlns="http://www.w3.org/2000/svg" x="0px" y="0px"
viewBox="0 0 226 226"
style=" fill:#000000;"><defs><radialGradient cx="52.62504" cy="39.51704" r="189.80233" gradientUnits="userSpaceOnUse" id="color-1_kDoeg22e5jUY_gr1"><stop offset="0" stop-color="#858585"></stop><stop offset="0.484" stop-color="#7a7a7a"></stop><stop offset="0.775" stop-color="#333333"></stop><stop offset="1" stop-color="#000000"></stop></radialGradient><radialGradient cx="113" cy="207.67517" r="75.9925" gradientUnits="userSpaceOnUse" id="color-2_kDoeg22e5jUY_gr2"><stop offset="0" stop-color="#000000"></stop><stop offset="1" stop-color="#000000" stop-opacity="0"></stop></radialGradient><radialGradient cx="113" cy="94.16667" r="44.72917" gradientUnits="userSpaceOnUse" id="color-3_kDoeg22e5jUY_gr3"><stop offset="0" stop-color="#000000"></stop><stop offset="1" stop-color="#000000" stop-opacity="0"></stop></radialGradient><linearGradient x1="87.44788" y1="63.90621" x2="140.00229" y2="116.46063" gradientUnits="userSpaceOnUse" id="color-4_kDoeg22e5jUY_gr4"><stop offset="0" stop-color="#013e59"></stop><stop offset="1" stop-color="#021221"></stop></linearGradient><linearGradient x1="80.07463" y1="146.94708" x2="145.431" y2="212.30346" gradientUnits="userSpaceOnUse" id="color-5_kDoeg22e5jUY_gr5"><stop offset="0" stop-color="#013e59"></stop><stop offset="1" stop-color="#021221"></stop></linearGradient></defs><g fill="none" fill-rule="nonzero" stroke="none" stroke-width="1" stroke-linecap="butt" stroke-linejoin="miter" stroke-miterlimit="10" stroke-dasharray="" stroke-dashoffset="0" font-family="none" font-weight="none" font-size="none" text-anchor="none" style="mix-blend-mode: normal"><path d="M0,226v-226h226v226z" fill="none"></path><g><path d="M207.16667,113c0,52.00354 -42.16312,94.16667 -94.16667,94.16667c-52.00354,0 -94.16667,-42.16312 -94.16667,-94.16667c0,-52.00354 42.16312,-94.16667 94.16667,-94.16667c52.00354,0 94.16667,42.16312 94.16667,94.16667z" fill="url(#color-1_kDoeg22e5jUY_gr1)"></path><path d="M113,207.16667c27.28479,0 51.78225,-11.67667 68.98179,-30.21808c-11.64842,-26.55029 -38.13279,-45.11525 -68.98179,-45.11525c-30.849,0 -57.33337,18.56496 -68.98179,45.11525c17.19954,18.54142 41.697,30.21808 68.98179,30.21808z" fill="url(#color-2_kDoeg22e5jUY_gr2)"></path><circle cx="24" cy="20" transform="scale(4.70833,4.70833)" r="9.5" fill="url(#color-3_kDoeg22e5jUY_gr3)"></circle><circle cx="24" cy="19" transform="scale(4.70833,4.70833)" r="8" fill="url(#color-4_kDoeg22e5jUY_gr4)"></circle><path d="M113,207.16667c23.61229,0 45.13879,-8.75279 61.66975,-23.11321c-9.37429,-24.98713 -33.41033,-42.80346 -61.66975,-42.80346c-28.25942,0 -52.29546,17.81633 -61.66975,42.80346c16.53096,14.36042 38.05746,23.11321 61.66975,23.11321z" fill="url(#color-5_kDoeg22e5jUY_gr5)"></path></g></g></svg>