<svg xmlns="http://www.w3.org/2000/svg" x="0px" y="0px"
viewBox="0 0 172 172"
style=" fill:#000000;"><g fill="none" fill-rule="nonzero" stroke="none" stroke-width="1" stroke-linecap="butt" stroke-linejoin="miter" stroke-miterlimit="10" stroke-dasharray="" stroke-dashoffset="0" font-family="none" font-weight="none" font-size="none" text-anchor="none" style="mix-blend-mode: normal"><path d="M0,172v-172h172v172z" fill="none"></path><path d="M86,167.7c-45.12166,0 -81.7,-36.57834 -81.7,-81.7v0c0,-45.12166 36.57834,-81.7 81.7,-81.7h0c45.12166,0 81.7,36.57834 81.7,81.7v0c0,45.12166 -36.57834,81.7 -81.7,81.7z" fill="#ff9b6c"></path><g fill="#ffffff"><path d="M69.19775,108.07333c-3.03508,0 -5.51833,-2.48325 -5.51833,-5.51833v-27.59167h-11.03667v27.59167c0,9.10525 7.44975,16.555 16.555,16.555h52.42417v-11.03667z"></path><path d="M129.89942,47.37167l-16.555,36.97283c-0.55183,1.10367 -1.37958,1.6555 -2.48325,1.6555h-41.11158c-1.10367,0 -2.20733,-0.82775 -2.48325,-1.93142l-13.51992,-40.28383c-1.6555,-4.41467 -5.79425,-7.44975 -10.48483,-7.44975h-9.933v11.03667h9.933l15.17542,45.80217c0.82775,2.20733 2.75917,3.86283 5.24242,3.86283h52.42417c2.20733,0 4.13875,-1.37958 4.9665,-3.311l20.96967,-46.354z"></path><path d="M33.32858,36.335c-3.04769,0 -5.51833,2.47064 -5.51833,5.51833c0,3.04769 2.47064,5.51833 5.51833,5.51833c3.04769,0 5.51833,-2.47064 5.51833,-5.51833c0,-3.04769 -2.47064,-5.51833 -5.51833,-5.51833z"></path><path d="M113.34442,119.11c-4.57154,0 -8.2775,3.70596 -8.2775,8.2775c0,4.57154 3.70596,8.2775 8.2775,8.2775c4.57154,0 8.2775,-3.70596 8.2775,-8.2775c0,-4.57154 -3.70596,-8.2775 -8.2775,-8.2775zM71.95692,119.11c-4.57154,0 -8.2775,3.70596 -8.2775,8.2775c0,4.57154 3.70596,8.2775 8.2775,8.2775c4.57154,0 8.2775,-3.70596 8.2775,-8.2775c0,-4.57154 -3.70596,-8.2775 -8.2775,-8.2775z"></path><g><path d="M113.34442,124.62833c-1.52385,0 -2.75917,1.23532 -2.75917,2.75917c0,1.52385 1.23532,2.75917 2.75917,2.75917c1.52385,0 2.75917,-1.23532 2.75917,-2.75917c0,-1.52385 -1.23532,-2.75917 -2.75917,-2.75917zM71.95692,124.62833c-1.52385,0 -2.75917,1.23532 -2.75917,2.75917c0,1.52385 1.23532,2.75917 2.75917,2.75917c1.52385,0 2.75917,-1.23532 2.75917,-2.75917c0,-1.52385 -1.23532,-2.75917 -2.75917,-2.75917z"></path></g><path d="M82.99358,47.37167v-11.03667l-16.555,16.555l16.555,16.555v-11.03667h11.03667c1.6555,0 2.75917,1.10367 2.75917,2.75917v16.555h11.03667v-19.31417c0,-6.07017 -4.9665,-11.03667 -11.03667,-11.03667z"></path></g></g></svg>