<svg xmlns="http://www.w3.org/2000/svg" x="0px" y="0px" viewBox="0 0 226 226"
    style=" fill:#000000;">
    <g transform="">
        <g fill="none" fill-rule="nonzero" stroke="none" stroke-width="1" stroke-linecap="butt" stroke-linejoin="miter"
            stroke-miterlimit="10" stroke-dasharray="" stroke-dashoffset="0" font-family="none" font-weight="none"
            font-size="none" text-anchor="none" style="mix-blend-mode: normal">
            <path d="M0,226v-226h226v226z" fill="none"></path>
            <g fill="#011a2c">
                <path
                    d="M124.88119,139.99935l23.35775,23.35774c-3.56804,6.80502 -3.93587,13.57325 -0.18393,17.3252l42.63249,42.63249c5.37045,5.37044 17.06771,2.42773 26.04297,-6.58431c9.01204,-9.01204 11.95475,-20.67252 6.58431,-26.04297l-42.59571,-42.63249c-3.78873,-3.75195 -10.55696,-3.38411 -17.36198,0.14714l-23.35774,-23.32096zM80.04167,0c-44.21419,0 -80.04167,35.82748 -80.04167,80.04167c0,44.2142 35.82748,80.04167 80.04167,80.04167c44.2142,0 80.04167,-35.82747 80.04167,-80.04167c0,-44.21419 -35.82747,-80.04167 -80.04167,-80.04167zM80.04167,141.25c-33.80436,0 -61.20833,-27.40397 -61.20833,-61.20833c0,-33.80436 27.40397,-61.20833 61.20833,-61.20833c33.80436,0 61.20833,27.40397 61.20833,61.20833c0,33.80436 -27.40397,61.20833 -61.20833,61.20833z">
                </path>
            </g>
            <path d="" fill="none"></path>
        </g>
    </g>
</svg>