<svg xmlns="http://www.w3.org/2000/svg" x="0px" y="0px"
viewBox="0 0 172 172"
style=" fill:#000000;"><g fill="none" fill-rule="nonzero" stroke="none" stroke-width="1" stroke-linecap="butt" stroke-linejoin="miter" stroke-miterlimit="10" stroke-dasharray="" stroke-dashoffset="0" font-family="none" font-weight="none" font-size="none" text-anchor="none" style="mix-blend-mode: normal"><path d="M0,172v-172h172v172z" fill="none"></path><path d="M86,167.7c-45.12166,0 -81.7,-36.57834 -81.7,-81.7v0c0,-45.12166 36.57834,-81.7 81.7,-81.7h0c45.12166,0 81.7,36.57834 81.7,81.7v0c0,45.12166 -36.57834,81.7 -81.7,81.7z" fill="#b765ff"></path><g fill="#ffffff"><path d="M34.28035,23.392c-1.5033,0.00015 -2.72194,1.21878 -2.72209,2.72209v10.88835c0.00105,0.24446 0.03503,0.48766 0.10102,0.72305c-0.65232,1.76098 -1.264,3.5968 -1.73852,5.36974c-0.63336,2.36641 -1.08458,4.42487 -1.08458,6.23103v21.43112c0,0.56261 0.08554,1.10577 0.21266,1.63219h-5.65684c-1.5033,0.00015 -2.72194,1.21878 -2.72209,2.72209v10.88835c0.00015,1.5033 1.21878,2.72194 2.72209,2.72209h125.216c1.5033,-0.00015 2.72194,-1.21878 2.72209,-2.72209v-10.88835c-0.00015,-1.5033 -1.21878,-2.72194 -2.72209,-2.72209h-27.43353c0.12712,-0.52642 0.21266,-1.06957 0.21266,-1.63219v-21.43112c0,-1.85872 -0.48075,-3.97578 -1.14838,-6.40647c-0.46838,-1.70526 -1.06199,-3.45671 -1.69067,-5.14645c0.07578,-0.25002 0.11517,-0.50965 0.11697,-0.7709v-10.88835c-0.00015,-1.5033 -1.21878,-2.72194 -2.72209,-2.72209h-16.33252c-1.5033,0.00015 -2.72194,1.21878 -2.72209,2.72209v10.88835c0.00105,0.24446 0.03503,0.48766 0.10101,0.72305c-0.65232,1.76098 -1.264,3.5968 -1.73852,5.36974c-0.63336,2.36641 -1.08458,4.42487 -1.08458,6.23103v21.43112c0,0.56261 0.08554,1.10577 0.21266,1.63219h-5.8695c0.12712,-0.52642 0.21266,-1.06957 0.21266,-1.63219v-21.43112c0,-1.85872 -0.48075,-3.97578 -1.14838,-6.40647c-0.46838,-1.70526 -1.06199,-3.45671 -1.69067,-5.14645c0.07578,-0.25002 0.11517,-0.50965 0.11697,-0.7709v-10.88835c-0.00015,-1.5033 -1.21878,-2.72194 -2.72209,-2.72209h-16.33252c-1.5033,0.00015 -2.72194,1.21878 -2.72209,2.72209v10.88835c0.00105,0.24446 0.03503,0.48766 0.10101,0.72305c-0.65232,1.76098 -1.264,3.5968 -1.73852,5.36974c-0.63336,2.36641 -1.08458,4.42487 -1.08458,6.23103v21.43112c0,0.56261 0.08554,1.10577 0.21266,1.63219h-5.8695c0.12712,-0.52642 0.21266,-1.06957 0.21266,-1.63219v-21.43112c0,-1.85872 -0.48075,-3.97578 -1.14838,-6.40647c-0.46838,-1.70526 -1.06199,-3.45671 -1.69067,-5.14645c0.07578,-0.25002 0.11517,-0.50965 0.11697,-0.7709v-10.88835c-0.00015,-1.5033 -1.21878,-2.72194 -2.72209,-2.72209zM37.00243,28.83617h10.88835v5.44417h-10.88835zM69.66748,28.83617h10.88835v5.44417h-10.88835zM102.33252,28.83617h10.88835v5.44417h-10.88835zM36.72066,39.72452h11.41469c0.56311,1.51508 1.10598,3.10738 1.52586,4.63605c0.60358,2.19753 0.95167,4.29014 0.95167,4.96568v21.43112c0,0.93648 -0.69571,1.63219 -1.63219,1.63219h-13.06814c-0.93648,0 -1.63219,-0.69571 -1.63219,-1.63219v-21.43112c0,-0.66822 0.32665,-2.68553 0.8985,-4.82214c0.41955,-1.56756 0.96877,-3.21687 1.54181,-4.7796zM69.3857,39.72452h11.41469c0.56311,1.51508 1.10598,3.10738 1.52586,4.63605c0.60358,2.19753 0.95167,4.29014 0.95167,4.96568v21.43112c0,0.93648 -0.69571,1.63219 -1.63219,1.63219h-13.06815c-0.93648,0 -1.63219,-0.69571 -1.63219,-1.63219v-21.43112c0,-0.66822 0.32665,-2.68553 0.8985,-4.82214c0.41955,-1.56756 0.96877,-3.21687 1.54181,-4.7796zM102.05074,39.72452h11.41469c0.56311,1.51508 1.10598,3.10738 1.52586,4.63605c0.60358,2.19753 0.95167,4.29014 0.95167,4.96568v21.43112c0,0.93648 -0.69571,1.63219 -1.63219,1.63219h-13.06815c-0.93648,0 -1.63219,-0.69571 -1.63219,-1.63219v-21.43112c0,-0.66822 0.32665,-2.68553 0.8985,-4.82214c0.41955,-1.56756 0.96877,-3.21687 1.54181,-4.7796zM26.11409,77.83374h9.79845h13.06814h19.5969h13.06815h19.5969h13.06815h31.57514v5.44417h-119.77183zM99.61043,94.16626c-1.5033,0.00015 -2.72194,1.21878 -2.72209,2.72209v16.33252h-10.88835c-1.5033,0.00015 -2.72194,1.21878 -2.72209,2.72209v16.33252h-21.7767v-16.33252c-0.00015,-1.5033 -1.21878,-2.72194 -2.72209,-2.72209h-27.22087c-1.5033,0.00015 -2.72194,1.21878 -2.72209,2.72209v16.33252h-5.44417c-1.5033,0.00015 -2.72194,1.21878 -2.72209,2.72209v10.88835c0.00015,1.5033 1.21878,2.72194 2.72209,2.72209h125.216c1.5033,-0.00015 2.72194,-1.21878 2.72209,-2.72209v-10.88835c-0.00015,-1.5033 -1.21878,-2.72194 -2.72209,-2.72209h-5.44417v-16.33252c-0.00015,-1.5033 -1.21878,-2.72194 -2.72209,-2.72209h-10.88835v-16.33252c-0.00015,-1.5033 -1.21878,-2.72194 -2.72209,-2.72209zM102.33252,99.61043h21.7767v13.61043h-10.88835h-10.88835zM34.28035,118.66504h21.7767v13.61043h-21.7767zM88.72209,118.66504h10.88835h10.88835v13.61043h-21.7767zM115.94296,118.66504h10.88835h10.88835v13.61043h-21.7767zM26.11409,137.71965h119.77183v5.44417h-119.77183z"></path></g></g></svg>