<svg xmlns="http://www.w3.org/2000/svg" x="0px" y="0px"
viewBox="0 0 172 172"
style=" fill:#000000;"><g fill="none" fill-rule="nonzero" stroke="none" stroke-width="1" stroke-linecap="butt" stroke-linejoin="miter" stroke-miterlimit="10" stroke-dasharray="" stroke-dashoffset="0" font-family="none" font-weight="none" font-size="none" text-anchor="none" style="mix-blend-mode: normal"><path d="M0,172v-172h172v172z" fill="none"></path><path d="M86,167.7c-45.12166,0 -81.7,-36.57834 -81.7,-81.7v0c0,-45.12166 36.57834,-81.7 81.7,-81.7h0c45.12166,0 81.7,36.57834 81.7,81.7v0c0,45.12166 -36.57834,81.7 -81.7,81.7z" fill="#ff7373"></path><g fill="#ffffff"><path d="M74.992,22.704c-4.52829,0 -8.256,3.72771 -8.256,8.256v5.504h-21.59137c-0.15452,-0.02583 -0.31096,-0.03842 -0.46763,-0.03763c-0.13332,0.00289 -0.26625,0.01546 -0.39775,0.03763h-5.06325c-0.99247,-0.01404 -1.91562,0.5074 -2.41595,1.36464c-0.50033,0.85724 -0.50033,1.91747 0,2.77472c0.50033,0.85724 1.42348,1.37868 2.41595,1.36464h2.752v99.072c0,4.52829 3.72771,8.256 8.256,8.256h71.552c4.52829,0 8.256,-3.72771 8.256,-8.256v-99.072h2.752c0.99247,0.01404 1.91562,-0.5074 2.41595,-1.36464c0.50033,-0.85724 0.50033,-1.91747 0,-2.77472c-0.50033,-0.85724 -1.42348,-1.37868 -2.41595,-1.36464h-5.04175c-0.29719,-0.04912 -0.60043,-0.04912 -0.89763,0h-21.58063v-5.504c0,-4.52829 -3.72771,-8.256 -8.256,-8.256zM74.992,28.208h22.016c1.52611,0 2.752,1.22589 2.752,2.752v5.504h-27.52v-5.504c0,-1.52611 1.22589,-2.752 2.752,-2.752zM47.472,41.968h21.55375c0.29719,0.04912 0.60043,0.04912 0.89763,0h32.12637c0.29719,0.04912 0.60043,0.04912 0.89763,0h21.58063v99.072c0,1.52611 -1.22589,2.752 -2.752,2.752h-71.552c-1.52611,0 -2.752,-1.22589 -2.752,-2.752zM69.445,55.69037c-1.51777,0.02373 -2.72979,1.27181 -2.709,2.78963v68.8c-0.01404,0.99247 0.5074,1.91562 1.36464,2.41595c0.85724,0.50033 1.91747,0.50033 2.77472,0c0.85724,-0.50033 1.37868,-1.42348 1.36464,-2.41595v-68.8c0.01019,-0.74387 -0.28119,-1.46017 -0.80774,-1.98571c-0.52655,-0.52554 -1.24342,-0.81553 -1.98726,-0.80392zM85.957,55.69037c-1.51777,0.02373 -2.72979,1.27181 -2.709,2.78963v68.8c-0.01404,0.99247 0.5074,1.91562 1.36464,2.41595c0.85724,0.50033 1.91747,0.50033 2.77472,0c0.85724,-0.50033 1.37868,-1.42348 1.36464,-2.41595v-68.8c0.01019,-0.74387 -0.28119,-1.46017 -0.80774,-1.98571c-0.52655,-0.52554 -1.24342,-0.81553 -1.98726,-0.80392zM102.469,55.69037c-1.51777,0.02373 -2.72979,1.27181 -2.709,2.78963v68.8c-0.01404,0.99247 0.5074,1.91562 1.36464,2.41595c0.85724,0.50033 1.91747,0.50033 2.77472,0c0.85724,-0.50033 1.37868,-1.42348 1.36464,-2.41595v-68.8c0.01019,-0.74387 -0.28119,-1.46017 -0.80774,-1.98571c-0.52655,-0.52554 -1.24342,-0.81553 -1.98726,-0.80392z"></path></g></g></svg>