<svg xmlns="http://www.w3.org/2000/svg" x="0px" y="0px"
viewBox="0 0 172 172"
style=" fill:#000000;"><g fill="none" fill-rule="nonzero" stroke="none" stroke-width="1" stroke-linecap="butt" stroke-linejoin="miter" stroke-miterlimit="10" stroke-dasharray="" stroke-dashoffset="0" font-family="none" font-weight="none" font-size="none" text-anchor="none" style="mix-blend-mode: normal"><path d="M0,172v-172h172v172z" fill="none"></path><path d="M86,172c-47.49649,0 -86,-38.50351 -86,-86v0c0,-47.49649 38.50351,-86 86,-86v0c47.49649,0 86,38.50351 86,86v0c0,47.49649 -38.50351,86 -86,86z" fill="#ff7b7b"></path><g fill="#ffffff"><path d="M84.3875,30.96c-4.90805,0 -9.48351,3.64828 -11.44875,8.7075l-1.6125,4.1925h-13.70625v-2.58c0,-1.42101 -1.15899,-2.58 -2.58,-2.58h-18.06c-1.42101,0 -2.58,1.15899 -2.58,2.58v3.62812c-7.38726,2.26758 -12.9,8.90906 -12.9,17.01188v54.18c0,9.94711 8.11289,18.06 18.06,18.06h92.88c9.94711,0 18.06,-8.11289 18.06,-18.06v-54.18c0,-9.94711 -8.11289,-18.06 -18.06,-18.06h-5.96625l-1.6125,-4.1925c-1.96524,-5.05922 -6.53063,-8.7075 -11.44875,-8.7075zM84.3875,36.12h29.025c1.97531,0 5.38172,2.23735 6.61125,5.40187l2.2575,5.88563c0.39305,0.98766 1.36055,1.62258 2.41875,1.6125h7.74c7.15547,0 12.9,5.74453 12.9,12.9v54.18c0,7.15547 -5.74453,12.9 -12.9,12.9h-92.88c-7.15547,0 -12.9,-5.74453 -12.9,-12.9v-54.18c0,-6.41976 4.62586,-11.71078 10.72313,-12.73875c1.23961,-0.19149 2.15672,-1.24969 2.17688,-2.49937v-2.82187h12.9v2.58c0,1.42101 1.15899,2.58 2.58,2.58h18.06c1.0582,0.01008 2.0257,-0.62484 2.41875,-1.6125l2.2575,-5.88563c1.22953,-3.16453 4.63594,-5.40187 6.61125,-5.40187zM98.9,54.18c-18.48328,0 -33.54,15.05672 -33.54,33.54c0,18.48328 15.05672,33.54 33.54,33.54c18.48328,0 33.54,-15.05672 33.54,-33.54c0,-18.48328 -15.05672,-33.54 -33.54,-33.54zM39.56,56.76c-2.85211,0 -5.16,2.30789 -5.16,5.16c0,2.85211 2.30789,5.16 5.16,5.16c2.85211,0 5.16,-2.30789 5.16,-5.16c0,-2.85211 -2.30789,-5.16 -5.16,-5.16zM98.9,59.34c15.70172,0 28.38,12.67828 28.38,28.38c0,15.70172 -12.67828,28.38 -28.38,28.38c-15.70172,0 -28.38,-12.67828 -28.38,-28.38c0,-15.70172 12.67828,-28.38 28.38,-28.38z"></path></g></g></svg>