<svg xmlns="http://www.w3.org/2000/svg" x="0px" y="0px"
viewBox="0 0 172 172"
style=" fill:#000000;"><g fill="none" fill-rule="nonzero" stroke="none" stroke-width="1" stroke-linecap="butt" stroke-linejoin="miter" stroke-miterlimit="10" stroke-dasharray="" stroke-dashoffset="0" font-family="none" font-weight="none" font-size="none" text-anchor="none" style="mix-blend-mode: normal"><path d="M0,172v-172h172v172z" fill="none"></path><g><path d="M150.5,40.3125h-137.0625l21.5,-21.5h96.75z" fill="#6c6c6c"></path><rect x="5" y="15" transform="scale(2.6875,2.6875)" width="52" height="42" rx="1" ry="1" fill="#696969"></rect><path d="M24.1875,139.75h118.25c5.93706,0 10.75,4.81294 10.75,10.75v2.6875v0h-139.75v0v-2.6875c0,-5.93706 4.81294,-10.75 10.75,-10.75z" fill="#6c6c6c"></path><path d="M43,134.53625c-1.48427,0 -2.6875,1.20323 -2.6875,2.6875v5.375c0,1.48427 1.20323,2.6875 2.6875,2.6875c1.48427,0 2.6875,-1.20323 2.6875,-2.6875v-5.375c0,-1.48427 -1.20323,-2.6875 -2.6875,-2.6875zM29.5625,134.53625c-1.48427,0 -2.6875,1.20323 -2.6875,2.6875v5.375c0,1.48427 1.20323,2.6875 2.6875,2.6875c1.48427,0 2.6875,-1.20323 2.6875,-2.6875v-5.375c0,-1.48427 -1.20323,-2.6875 -2.6875,-2.6875zM56.4375,134.53625c-1.48427,0 -2.6875,1.20323 -2.6875,2.6875v5.375c0,1.48427 1.20323,2.6875 2.6875,2.6875c1.48427,0 2.6875,-1.20323 2.6875,-2.6875v-5.375c0,-1.48427 -1.20323,-2.6875 -2.6875,-2.6875zM69.875,134.53625c-1.48427,0 -2.6875,1.20323 -2.6875,2.6875v5.375c0,1.48427 1.20323,2.6875 2.6875,2.6875c1.48427,0 2.6875,-1.20323 2.6875,-2.6875v-5.375c0,-1.48427 -1.20323,-2.6875 -2.6875,-2.6875zM83.3125,134.53625c-1.48427,0 -2.6875,1.20323 -2.6875,2.6875v5.375c0,1.48427 1.20323,2.6875 2.6875,2.6875c1.48427,0 2.6875,-1.20323 2.6875,-2.6875v-5.375c0,-1.48427 -1.20323,-2.6875 -2.6875,-2.6875zM96.75,134.53625c-1.48427,0 -2.6875,1.20323 -2.6875,2.6875v5.375c0,1.48427 1.20323,2.6875 2.6875,2.6875c1.48427,0 2.6875,-1.20323 2.6875,-2.6875v-5.375c0,-1.48427 -1.20323,-2.6875 -2.6875,-2.6875zM110.1875,134.53625c-1.48427,0 -2.6875,1.20323 -2.6875,2.6875v5.375c0,1.48427 1.20323,2.6875 2.6875,2.6875c1.48427,0 2.6875,-1.20323 2.6875,-2.6875v-5.375c0,-1.48427 -1.20323,-2.6875 -2.6875,-2.6875zM123.625,134.53625c-1.48427,0 -2.6875,1.20323 -2.6875,2.6875v5.375c0,1.48427 1.20323,2.6875 2.6875,2.6875c1.48427,0 2.6875,-1.20323 2.6875,-2.6875v-5.375c0,-1.48427 -1.20323,-2.6875 -2.6875,-2.6875zM137.0625,134.53625c-1.48427,0 -2.6875,1.20323 -2.6875,2.6875v5.375c0,1.48427 1.20323,2.6875 2.6875,2.6875c1.48427,0 2.6875,-1.20323 2.6875,-2.6875v-5.375c0,-1.48427 -1.20323,-2.6875 -2.6875,-2.6875z" fill="#2c2c2c"></path><path d="M151.95125,35.26l-15.21125,-15.21125c-2.52493,-2.51856 -5.94747,-3.93012 -9.51375,-3.92375h-87.8275c-3.56628,-0.00637 -6.98882,1.40519 -9.51375,3.92375l-15.21125,15.21125c-2.51856,2.52493 -3.93012,5.94747 -3.92375,9.51375v103.03875c0,4.4528 3.6097,8.0625 8.0625,8.0625h129c4.4528,0 8.0625,-3.6097 8.0625,-8.0625v-103.03875c0.00637,-3.56628 -1.40519,-6.98882 -3.92375,-9.51375zM146.87187,37.78625h-17.87187v-16.125c1.48456,0.33214 2.84486,1.07751 3.92375,2.15zM43,21.5h80.625v16.28625h-80.625zM33.70125,23.865c1.07889,-1.07249 2.43919,-1.81786 3.92375,-2.15v16.125h-17.845zM150.5,147.8125c0,1.48427 -1.20323,2.6875 -2.6875,2.6875h-129c-1.48427,0 -2.6875,-1.20323 -2.6875,-2.6875v-103.03875c-0.00054,-0.54155 0.05348,-1.08178 0.16125,-1.6125h134.0525c0.10777,0.53072 0.16179,1.07095 0.16125,1.6125z" fill="#2c2c2c"></path><path d="M110.1875,112.875h-53.75c-1.48427,0 -2.6875,1.20323 -2.6875,2.6875c0,1.48427 1.20323,2.6875 2.6875,2.6875h53.75c1.48427,0 2.6875,-1.20323 2.6875,-2.6875c0,-1.48427 -1.20323,-2.6875 -2.6875,-2.6875zM72.5625,59.125h21.5c1.48427,0 2.6875,-1.20323 2.6875,-2.6875c0,-1.48427 -1.20323,-2.6875 -2.6875,-2.6875h-21.5c-1.48427,0 -2.6875,1.20323 -2.6875,2.6875c0,1.48427 1.20323,2.6875 2.6875,2.6875zM61.03313,87.90813l3.46687,-3.49375v20.39812c0,1.48427 1.20323,2.6875 2.6875,2.6875c1.48427,0 2.6875,-1.20323 2.6875,-2.6875v-20.39812l3.46688,3.46688c1.06629,0.91315 2.65577,0.85176 3.64845,-0.14092c0.99268,-0.99268 1.05407,-2.58216 0.14092,-3.64845l-8.0625,-8.0625c-1.04823,-1.04201 -2.74115,-1.04201 -3.78937,0l-8.0625,8.0625c-0.91315,1.06629 -0.85176,2.65577 0.14092,3.64845c0.99268,0.99268 2.58216,1.05407 3.64845,0.14092zM89.46688,87.90813c1.04823,1.04201 2.74115,1.04201 3.78937,0l3.49375,-3.49375v20.39812c0,1.48427 1.20323,2.6875 2.6875,2.6875c1.48427,0 2.6875,-1.20323 2.6875,-2.6875v-20.39812l3.46688,3.46688c1.06629,0.91315 2.65577,0.85176 3.64845,-0.14092c0.99268,-0.99268 1.05407,-2.58216 0.14092,-3.64845l-8.0625,-8.0625c-1.04823,-1.04201 -2.74115,-1.04201 -3.78937,0l-8.0625,8.0625c-0.50878,0.50462 -0.79496,1.19154 -0.79496,1.90812c0,0.71659 0.28618,1.4035 0.79496,1.90812z" fill="#2c2c2c"></path></g></g></svg>