<svg xmlns="http://www.w3.org/2000/svg" x="0px" y="0px"
viewBox="0 0 226 226"
style=" fill:#000000;"><defs><linearGradient x1="60.2403" y1="60.2403" x2="175.58317" y2="175.58317" gradientUnits="userSpaceOnUse" id="color-1_uLWV5A9vXIPu_gr1"><stop offset="0" stop-color="#2aa4f4"></stop><stop offset="1" stop-color="#007ad9"></stop></linearGradient></defs><g fill="none" fill-rule="nonzero" stroke="none" stroke-width="1" stroke-linecap="butt" stroke-linejoin="miter" stroke-miterlimit="10" stroke-dasharray="" stroke-dashoffset="0" font-family="none" font-weight="none" font-size="none" text-anchor="none" style="mix-blend-mode: normal"><path d="M0,226v-226h226v226z" fill="none"></path><path d="M113,185.32c-39.94123,0 -72.32,-32.37877 -72.32,-72.32v0c0,-39.94123 32.37877,-72.32 72.32,-72.32v0c39.94123,0 72.32,32.37877 72.32,72.32v0c0,39.94123 -32.37877,72.32 -72.32,72.32z" fill="#ffffff"></path><g><path d="M113,37.66667c-41.6066,0 -75.33333,33.72673 -75.33333,75.33333c0,41.6066 33.72673,75.33333 75.33333,75.33333c41.6066,0 75.33333,-33.72673 75.33333,-75.33333c0,-41.6066 -33.72673,-75.33333 -75.33333,-75.33333z" fill="url(#color-1_uLWV5A9vXIPu_gr1)"></path><path d="M123.19637,132.9671h19.49627l3.0623,-19.80513h-22.55857v-10.8254c0,-8.2264 2.6894,-15.52243 10.3847,-15.52243h12.36597v-17.28147c-2.17337,-0.2938 -6.7687,-0.93413 -15.45087,-0.93413c-18.13273,0 -28.76227,9.57487 -28.76227,31.3914v13.1758h-18.64123v19.80513h18.63747v54.43587c3.69133,0.54993 7.43163,0.9266 11.26987,0.9266c3.4691,0 6.85533,-0.3164 10.19637,-0.7684z" fill="#ffffff"></path></g></g></svg>