<svg xmlns="http://www.w3.org/2000/svg" x="0px" y="0px"
viewBox="0 0 172 172"
style=" fill:#000000;"><g fill="none" fill-rule="nonzero" stroke="none" stroke-width="1" stroke-linecap="butt" stroke-linejoin="miter" stroke-miterlimit="10" stroke-dasharray="" stroke-dashoffset="0" font-family="none" font-weight="none" font-size="none" text-anchor="none" style="mix-blend-mode: normal"><path d="M0,172v-172h172v172z" fill="none" stroke="none"></path><path d="M86,172c-47.49649,0 -86,-38.50351 -86,-86v0c0,-47.49649 38.50351,-86 86,-86v0c47.49649,0 86,38.50351 86,86v0c0,47.49649 -38.50351,86 -86,86z" fill="#ffbb45" stroke="none"></path><g id="original-icon" fill="#ffffff" stroke="none" opacity="0" visibility="hidden"><path d="M58.48,25.456c-4.52829,0 -8.256,3.72771 -8.256,8.256v7.74537c-0.26088,0.66389 -1.36995,3.50776 -2.623,7.42825c-1.40816,4.40579 -2.881,9.56472 -2.881,13.72237c0,3.79404 0.7322,7.42638 2.74125,10.32537c0.73558,1.06142 1.67307,1.98454 2.76275,2.73588v62.61875c0,4.56006 3.69594,8.256 8.256,8.256h55.04c4.56006,0 8.256,-3.69594 8.256,-8.256v-62.61875c1.08968,-0.75134 2.02717,-1.67445 2.76275,-2.73588c2.00905,-2.899 2.74125,-6.53133 2.74125,-10.32537c0,-4.15766 -1.47284,-9.31659 -2.881,-13.72237c-1.25645,-3.93111 -2.37219,-6.78727 -2.62837,-7.439c0.00272,-0.04116 0.00451,-0.08238 0.00537,-0.12363v-7.611c0,-4.52829 -3.72771,-8.256 -8.256,-8.256zM58.48,30.96h55.04c1.52611,0 2.752,1.22589 2.752,2.752v5.504h-10.54575c-0.29719,-0.04912 -0.60043,-0.04912 -0.89763,0h-18.404c-0.15452,-0.02583 -0.31096,-0.03842 -0.46763,-0.03763c-0.13332,0.00289 -0.26625,0.01546 -0.39775,0.03763h-29.83125v-5.504c0,-1.52611 1.22589,-2.752 2.752,-2.752zM54.92175,44.72h9.06225v24.47237c-1.75861,1.8542 -4.14137,3.04763 -6.88,3.04763c-2.67553,0 -4.01973,-0.8623 -5.117,-2.44563c-1.09727,-1.58332 -1.763,-4.1417 -1.763,-7.18637c0,-2.68106 1.27916,-7.84084 2.623,-12.04537c1.03681,-3.24392 1.65533,-4.75684 2.07475,-5.84263zM69.488,44.72h13.76v24.47237c-1.75861,1.8542 -4.14137,3.04763 -6.88,3.04763c-2.73863,0 -5.12139,-1.19342 -6.88,-3.04763zM88.752,44.72h13.76v24.35412c-1.76297,1.8857 -4.11497,3.16588 -6.88,3.16588c-2.76503,0 -5.11703,-1.28018 -6.88,-3.16588zM108.016,44.72h9.06225c0.41942,1.08579 1.03794,2.59871 2.07475,5.84263c1.34384,4.20453 2.623,9.36431 2.623,12.04537c0,3.04468 -0.66573,5.60305 -1.763,7.18637c-1.09727,1.58332 -2.44147,2.44563 -5.117,2.44563c-2.73863,0 -5.12364,-1.1947 -6.88,-3.04763zM66.736,74.20188c2.60835,2.18501 5.95667,3.54212 9.632,3.54212c3.67533,0 7.02365,-1.35712 9.632,-3.54212c2.60835,2.18501 5.95667,3.54212 9.632,3.54212c3.67259,0 7.0191,-1.35461 9.62663,-3.53675c2.6078,2.18448 5.96294,3.53675 9.63737,3.53675c0.46905,0 0.92564,-0.02804 1.376,-0.07525v46.85925h-60.544v-46.85925c0.45036,0.04721 0.90695,0.07525 1.376,0.07525c3.67533,0 7.02365,-1.35712 9.632,-3.54212zM55.728,130.032h60.544v8.256c0,1.5191 -1.2329,2.752 -2.752,2.752h-55.04c-1.5191,0 -2.752,-1.2329 -2.752,-2.752zM77.744,132.784c-1.52186,0 -2.752,1.23014 -2.752,2.752c0,1.52186 1.23014,2.752 2.752,2.752h16.512c1.52186,0 2.752,-1.23014 2.752,-2.752c0,-1.52186 -1.23014,-2.752 -2.752,-2.752z"></path></g><g id="subtracted-icon" fill="#ffffff" stroke="none"><path d="M113.52,25.456c4.52829,0 8.256,3.72771 8.256,8.256v7.611c-0.00086,0.04124 -0.00266,0.08246 -0.00537,0.12363c0.25618,0.65173 1.37193,3.50789 2.62837,7.439c1.40816,4.40579 2.881,9.56472 2.881,13.72237c0,3.79404 -0.7322,7.42638 -2.74125,10.32537c-0.73558,1.06142 -1.67307,1.98454 -2.76275,2.73588v19.6782c-1.91109,0.48285 -3.76301,1.15725 -5.504,1.98868l0,-19.66738c-0.45036,0.04721 -0.90695,0.07525 -1.376,0.07525c-3.67443,0 -7.02957,-1.35227 -9.63737,-3.53675c-2.60753,2.18214 -5.95403,3.53675 -9.62663,3.53675c-3.67533,0 -7.02365,-1.35712 -9.632,-3.54212c-2.60835,2.18501 -5.95667,3.54212 -9.632,3.54212c-3.67533,0 -7.02365,-1.35712 -9.632,-3.54212c-2.60835,2.18501 -5.95667,3.54212 -9.632,3.54212c-0.46905,0 -0.92564,-0.02804 -1.376,-0.07525v46.85925h14.88913c0.11754,1.90693 0.38449,3.74059 0.78073,5.504h-15.66985v8.256c0,1.5191 1.2329,2.752 2.752,2.752h17.40954c1.17532,1.94495 2.4989,3.77723 3.92302,5.504h-21.33257c-4.56006,0 -8.256,-3.69594 -8.256,-8.256v-62.61875c-1.08968,-0.75134 -2.02717,-1.67445 -2.76275,-2.73588c-2.00905,-2.899 -2.74125,-6.53133 -2.74125,-10.32537c0,-4.15766 1.47284,-9.31659 2.881,-13.72237c1.25305,-3.92049 2.36212,-6.76436 2.623,-7.42825v-7.74537c0,-4.52829 3.72771,-8.256 8.256,-8.256zM55.728,33.712v5.504h29.83125c0.1315,-0.02216 0.26443,-0.03474 0.39775,-0.03763c0.15666,-0.00079 0.31311,0.0118 0.46763,0.03763h18.404c0.29719,-0.04912 0.60043,-0.04912 0.89763,0h10.54575v-5.504c0,-1.52611 -1.22589,-2.752 -2.752,-2.752h-55.04c-1.52611,0 -2.752,1.22589 -2.752,2.752zM52.847,50.56263c-1.34384,4.20453 -2.623,9.36431 -2.623,12.04537c0,3.04468 0.66573,5.60305 1.763,7.18637c1.09727,1.58332 2.44147,2.44563 5.117,2.44563c2.73863,0 5.12139,-1.19342 6.88,-3.04763v-24.47237h-9.06225c-0.41942,1.08579 -1.03794,2.59871 -2.07475,5.84263zM69.488,69.19237c1.75861,1.8542 4.14137,3.04763 6.88,3.04763c2.73863,0 5.12139,-1.19342 6.88,-3.04763v-24.47237h-13.76zM88.752,69.07412c1.76297,1.8857 4.11497,3.16588 6.88,3.16588c2.76503,0 5.11703,-1.28018 6.88,-3.16588v-24.35412h-13.76zM108.016,69.19237c1.75636,1.85293 4.14137,3.04763 6.88,3.04763c2.67553,0 4.01973,-0.8623 5.117,-2.44563c1.09727,-1.58332 1.763,-4.1417 1.763,-7.18637c0,-2.68106 -1.27916,-7.84084 -2.623,-12.04537c-1.03681,-3.24392 -1.65533,-4.75684 -2.07475,-5.84263h-9.06225z"></path></g><g stroke="none"><g fill="#ffffff"><g id="Слой_2" font-family="Inter, sans-serif" font-weight="400" font-size="16" text-anchor="start" visibility="hidden"></g><g id="Android_x5F_4" font-family="Inter, sans-serif" font-weight="400" font-size="16" text-anchor="start" visibility="hidden"></g><g id="Android_x5F_5" font-family="Inter, sans-serif" font-weight="400" font-size="16" text-anchor="start" visibility="hidden"></g><g id="Windows_x5F_8" font-family="Inter, sans-serif" font-weight="400" font-size="16" text-anchor="start" visibility="hidden"></g><g id="Windows_x5F_10" font-family="Inter, sans-serif" font-weight="400" font-size="16" text-anchor="start" visibility="hidden"></g><g id="Color" font-family="Inter, sans-serif" font-weight="400" font-size="16" text-anchor="start" visibility="hidden"></g><g id="IOS" font-family="Inter, sans-serif" font-weight="400" font-size="16" text-anchor="start" visibility="hidden"></g><g id="IOS_copy"><path d="M128.48201,102.10812c-5.62778,0 -10.92452,2.31732 -14.89707,5.95883c-3.97255,-3.64151 -9.26929,-5.95883 -14.89707,-5.95883c-11.91766,0 -21.51799,9.60033 -21.51799,21.18695c0,18.20753 16.5523,29.13205 27.14577,36.08402c2.97941,1.98628 5.29674,3.31046 6.95197,4.96569l1.98628,1.65523l1.98628,-1.65523c1.65523,-1.32418 4.3036,-2.97941 6.95197,-4.96569c11.25556,-7.28301 27.80787,-17.87649 27.80787,-36.08402c0,-11.58661 -9.60033,-21.18695 -21.51799,-21.18695zM119.21272,153.7513c-2.31732,1.32418 -3.97255,2.64837 -5.62778,3.64151c-1.65523,-1.32418 -3.31046,-2.31732 -5.62778,-3.64151c-10.26243,-6.62092 -24.16636,-15.89021 -24.16636,-30.45623c0,-7.9451 6.62092,-14.56603 14.89707,-14.56603c4.96569,0 9.26929,2.31732 12.2487,6.62092l2.64837,3.97255l2.64837,-3.97255c2.64837,-3.97255 7.28301,-6.62092 12.2487,-6.62092c8.27615,0 14.89707,6.62092 14.89707,14.56603c0,14.56603 -13.90393,23.83531 -24.16636,30.45623z"></path></g></g><g fill="#000000" opacity="0"><g id="IOS" font-family="Inter, sans-serif" font-weight="400" font-size="16" text-anchor="start" visibility="hidden"></g><g id="IOS_copy"><path d="M128.48201,94.49406c-5.29674,0 -10.59347,1.65523 -14.89707,4.3036c-4.3036,-2.64837 -9.60033,-4.3036 -14.89707,-4.3036c-15.55916,0 -28.13891,12.57975 -28.13891,27.80787c0,21.51799 18.86962,34.09774 30.12519,41.7118c2.64837,1.65523 4.96569,3.31046 6.62092,4.63464l1.98628,1.65523l4.3036,3.31046l4.3036,-3.31046l1.98628,-1.65523c1.65523,-1.32418 3.64151,-2.64837 6.62092,-4.63464c11.25556,-7.61406 30.12519,-19.86276 30.12519,-41.7118c0,-15.22812 -12.57975,-27.80787 -28.13891,-27.80787z"></path></g></g></g><path d="M77.16987,166v-63.89188h72.83013v63.89188z" id="overlay-drag" fill="#ff0000" stroke="none" opacity="0"></path></g></svg>