<svg xmlns="http://www.w3.org/2000/svg" x="0px" y="0px"
width="50" height="50"
viewBox="0 0 172 172"
style=" fill:#000000;"><g fill="none" fill-rule="nonzero" stroke="none" stroke-width="1" stroke-linecap="butt" stroke-linejoin="miter" stroke-miterlimit="10" stroke-dasharray="" stroke-dashoffset="0" font-family="none" font-weight="none" font-size="none" text-anchor="none" style="mix-blend-mode: normal"><path d="M0,172v-172h172v172z" fill="none"></path><path d="M86,172c-47.49649,0 -86,-38.50351 -86,-86v0c0,-47.49649 38.50351,-86 86,-86v0c47.49649,0 86,38.50351 86,86v0c0,47.49649 -38.50351,86 -86,86z" fill="#ffffff"></path><g fill="#000000"><path d="M86,1.3416c-46.71195,0 -84.6584,37.94645 -84.6584,84.6584c0,46.71195 37.94645,84.6584 84.6584,84.6584c46.71195,0 84.6584,-37.94645 84.6584,-84.6584c0,-46.71195 -37.94645,-84.6584 -84.6584,-84.6584zM86,8.7032c42.73344,0 77.2968,34.56336 77.2968,77.2968c0,42.73344 -34.56336,77.2968 -77.2968,77.2968c-42.73344,0 -77.2968,-34.56336 -77.2968,-77.2968c0,-42.73344 34.56336,-77.2968 77.2968,-77.2968zM38.1496,56.5536c-1.32743,-0.01877 -2.56214,0.67865 -3.23133,1.82521c-0.66919,1.14656 -0.66919,2.56462 0,3.71118c0.66919,1.14656 1.9039,1.84398 3.23133,1.82521h95.7008c1.32743,0.01877 2.56214,-0.67865 3.23133,-1.82521c0.66919,-1.14656 0.66919,-2.56462 0,-3.71118c-0.66919,-1.14656 -1.9039,-1.84398 -3.23133,-1.82521zM49.192,86c-1.32743,-0.01877 -2.56214,0.67865 -3.23133,1.82521c-0.66919,1.14656 -0.66919,2.56462 0,3.71118c0.66919,1.14656 1.9039,1.84398 3.23133,1.82521h73.616c1.32743,0.01877 2.56214,-0.67865 3.23133,-1.82521c0.66919,-1.14656 0.66919,-2.56462 0,-3.71118c-0.66919,-1.14656 -1.9039,-1.84398 -3.23133,-1.82521zM56.5536,115.4464c-1.32743,-0.01877 -2.56214,0.67865 -3.23133,1.82521c-0.66919,1.14656 -0.66919,2.56462 0,3.71118c0.66919,1.14656 1.9039,1.84398 3.23133,1.82521h58.8928c1.32743,0.01877 2.56214,-0.67865 3.23133,-1.82521c0.66919,-1.14656 0.66919,-2.56462 0,-3.71118c-0.66919,-1.14656 -1.9039,-1.84398 -3.23133,-1.82521z"></path></g></g></svg>