<svg xmlns="http://www.w3.org/2000/svg" x="0px" y="0px" viewBox="0 0 226 226" style=" fill:#000000;"> <defs> <linearGradient x1="174.99463" y1="22.4757" x2="181.77839" y2="78.6932" gradientUnits="userSpaceOnUse" id="color-1_Wl3HC6Phfut9_gr1"> <stop offset="0" stop-color="#c767e6"></stop> <stop offset="1" stop-color="#9231be"></stop> </linearGradient> <linearGradient x1="80.61326" y1="139.42693" x2="149.50559" y2="208.31927" gradientUnits="userSpaceOnUse" id="color-2_Wl3HC6Phfut9_gr2"> <stop offset="0" stop-color="#33bef0"></stop> <stop offset="1" stop-color="#0a85d9"></stop> </linearGradient> <linearGradient x1="148.90669" y1="97.28923" x2="153.93142" y2="97.28923" gradientUnits="userSpaceOnUse" id="color-3_Wl3HC6Phfut9_gr3"> <stop offset="0" stop-color="#c48f0c"></stop> <stop offset="0.251" stop-color="#d19b16"></stop> <stop offset="0.619" stop-color="#dca51f"></stop> <stop offset="1" stop-color="#e0a922"></stop> </linearGradient> <linearGradient x1="81.73196" y1="97.28923" x2="76.70723" y2="97.28923" gradientUnits="userSpaceOnUse" id="color-4_Wl3HC6Phfut9_gr4"> <stop offset="0" stop-color="#c48f0c"></stop> <stop offset="0.251" stop-color="#d19b16"></stop> <stop offset="0.619" stop-color="#dca51f"></stop> <stop offset="1" stop-color="#e0a922"></stop> </linearGradient> <radialGradient cx="115.31916" cy="92.39344" r="40.59216" gradientUnits="userSpaceOnUse" id="color-5_Wl3HC6Phfut9_gr5"> <stop offset="0" stop-color="#ffcf54"></stop> <stop offset="0.261" stop-color="#fdcb4d"></stop> <stop offset="0.639" stop-color="#f7c13a"></stop> <stop offset="1" stop-color="#f0b421"></stop> </radialGradient> <radialGradient cx="83.09183" cy="47.05601" r="96.01785" gradientUnits="userSpaceOnUse" id="color-6_Wl3HC6Phfut9_gr6"> <stop offset="0" stop-color="#c26715"></stop> <stop offset="0.508" stop-color="#b85515"></stop> <stop offset="1" stop-color="#ad3f16"></stop> </radialGradient> <radialGradient cx="109.91391" cy="53.48488" r="106.06125" gradientUnits="userSpaceOnUse" id="color-7_Wl3HC6Phfut9_gr7"> <stop offset="0" stop-color="#c26715"></stop> <stop offset="0.508" stop-color="#b85515"></stop> <stop offset="1" stop-color="#ad3f16"></stop> </radialGradient> </defs> <g fill="none" fill-rule="nonzero" stroke="none" stroke-width="1" stroke-linecap="butt" stroke-linejoin="miter" stroke-miterlimit="10" stroke-dasharray="" stroke-dashoffset="0" font-family="none" font-weight="none" font-size="none" text-anchor="none" style="mix-blend-mode: normal"> <path d="M0,226v-226h226v226z" fill="none"></path> <path d="M113,226c-62.40818,0 -113,-50.59182 -113,-113v0c0,-62.40818 50.59182,-113 113,-113v0c62.40818,0 113,50.59182 113,113v0c0,62.40818 -50.59182,113 -113,113z" fill="#140059"></path> <g> <path d="M169.89079,74.45947c-0.2712,-0.70813 -0.4859,-1.5029 -0.6328,-2.39183c-0.15067,-0.8814 -0.226,-1.72137 -0.226,-2.5086c0,-1.2543 0.12053,-2.3956 0.36537,-3.43143c0.24483,-1.03207 0.61397,-2.00387 1.10363,-2.91917c0.48967,-0.90777 1.10363,-1.78163 1.83813,-2.6103c0.7345,-0.82867 1.5933,-1.65357 2.57263,-2.47093c1.03207,-0.86633 1.93983,-1.67993 2.71577,-2.4295c0.77593,-0.74957 1.43887,-1.49537 1.98127,-2.2487c0.54617,-0.7458 0.95297,-1.52173 1.22417,-2.3278c0.2712,-0.8023 0.4068,-1.69123 0.4068,-2.67433c0,-0.84373 -0.15067,-1.6272 -0.44823,-2.34663c-0.30133,-0.71943 -0.72697,-1.33717 -1.2882,-1.85697c-0.56123,-0.5198 -1.23923,-0.9266 -2.04153,-1.22417c-0.8023,-0.30133 -1.695,-0.44823 -2.67433,-0.44823c-2.12063,0 -4.3279,0.4407 -6.61803,1.32963c-2.2826,0.8814 -4.4522,2.2261 -6.49373,4.01903v-12.2944c2.09803,-1.25053 4.3844,-2.18843 6.8591,-2.81747c2.47847,-0.62527 5.03603,-0.9379 7.67647,-0.9379c2.53497,0 4.88913,0.27873 7.06627,0.83997c2.17713,0.56123 4.07553,1.4351 5.69897,2.6329c1.61967,1.1978 2.88527,2.73083 3.7968,4.59533c0.91153,1.8645 1.3673,4.1019 1.3673,6.71597c0,1.65733 -0.1921,3.164 -0.57253,4.51247c-0.38043,1.3447 -0.9379,2.61783 -1.6724,3.8194c-0.7345,1.19403 -1.6498,2.34663 -2.7346,3.45027c-1.09233,1.09987 -2.34287,2.2374 -3.75913,3.40883c-0.95297,0.78723 -1.79293,1.52173 -2.51237,2.2035c-0.71943,0.68177 -1.3221,1.35223 -1.7967,2.0227c-0.47837,0.6667 -0.83997,1.37107 -1.08103,2.12063c-0.24483,0.7458 -0.36913,1.60083 -0.36913,2.5538c0,0.65163 0.08663,1.3221 0.26367,2.0001c0.17703,0.678 0.41433,1.25053 0.7119,1.71383zM175.84966,92.34737c-2.17713,0 -3.9889,-0.65163 -5.42777,-1.96243c-1.44263,-1.35977 -2.16207,-2.96437 -2.16207,-4.81757c0,-1.90217 0.71943,-3.49547 2.16207,-4.77613c1.44263,-1.28067 3.25063,-1.921 5.42777,-1.921c2.15077,0 3.93617,0.64033 5.35243,1.921c1.4125,1.25053 2.12063,2.84383 2.12063,4.77613c0,1.96243 -0.69683,3.5821 -2.08297,4.86277c-1.4125,1.2769 -3.21297,1.91723 -5.3901,1.91723z" fill="url(#color-1_Wl3HC6Phfut9_gr1)"></path> <path d="M115.31933,137.10667c-33.28603,0 -60.26667,18.53577 -60.26667,38.74393v4.3053c0,4.16217 3.37117,7.53333 7.53333,7.53333h105.46667c4.16217,0 7.53333,-3.37117 7.53333,-7.53333v-4.3053c0,-20.20817 -26.98063,-38.74393 -60.26667,-38.74393z" fill="url(#color-2_Wl3HC6Phfut9_gr2)"></path> <path d="M134.15266,138.72257c0,7.14537 -10.65967,15.06667 -18.83333,15.06667c-8.17367,0 -18.83333,-7.9213 -18.83333,-15.06667c0,-9.9327 0,-26.4985 0,-26.4985h37.66667c0,0 0,16.5658 0,26.4985z" fill="#d6a121"></path> <path d="M148.90292,89.7559h-1.98503v15.06667h2.64797c1.93983,0 3.5934,-1.1752 3.9211,-2.78733l1.29573,-6.41463c0.6215,-3.06607 -2.18467,-5.8647 -5.87977,-5.8647z" fill="url(#color-3_Wl3HC6Phfut9_gr3)"></path> <path d="M81.73572,89.7559h1.98503v15.06667h-2.64797c-1.93983,0 -3.5934,-1.1752 -3.9211,-2.78733l-1.29573,-6.41463c-0.6215,-3.06607 2.18467,-5.8647 5.87977,-5.8647z" fill="url(#color-4_Wl3HC6Phfut9_gr4)"></path> <path d="M115.31933,46.06257c-16.72777,0 -33.9,2.5425 -33.9,38.7025c0,2.8928 0,22.1367 0,25.22913c0,12.90837 20.34,28.72837 33.9,28.72837c13.56,0 33.9,-15.82 33.9,-28.72837c0,-3.09243 0,-22.33257 0,-25.22913c0,-36.16 -17.17223,-38.7025 -33.9,-38.7025z" fill="url(#color-5_Wl3HC6Phfut9_gr5)"></path> <path d="M115.31933,42.84207c-16.40007,0 -18.83333,6.16227 -18.83333,6.16227c-6.667,0.9831 -18.83333,10.75007 -18.83333,21.91447c0,6.23007 0.99817,10.83293 3.76667,26.36667c2.05283,-24.65283 8.47123,-33.9 15.06667,-33.9c4.77237,0 8.56163,3.76667 18.83333,3.76667c8.67463,0 10.82917,-3.76667 18.83333,-3.76667c11.3,0 15.06667,30.0128 15.06667,33.9c2.26377,-11.33767 3.76667,-20.92383 3.76667,-26.36667c0,-12.9159 -14.27943,-28.07673 -37.66667,-28.07673z" fill="url(#color-6_Wl3HC6Phfut9_gr6)"></path> <path d="M116.14423,40.78923c-15.6844,0 -19.64693,8.21887 -19.64693,8.21887c-0.1582,4.36557 1.9662,8.21887 1.9662,8.21887c0,0 2.86267,6.16227 19.21,6.16227c9.86867,0 24.0125,-6.1585 24.0125,-22.6c0,0 -3.1753,0 -25.54177,0z" fill="url(#color-7_Wl3HC6Phfut9_gr7)"></path> </g> </g></svg>