<svg xmlns="http://www.w3.org/2000/svg" x="0px" y="0px"

viewBox="0 0 172 172"
style=" fill:#000000;"><g fill="none" fill-rule="nonzero" stroke="none" stroke-width="1" stroke-linecap="butt" stroke-linejoin="miter" stroke-miterlimit="10" stroke-dasharray="" stroke-dashoffset="0" font-family="none" font-weight="none" font-size="none" text-anchor="none" style="mix-blend-mode: normal"><path d="M0,172v-172h172v172z" fill="none"></path><path d="M86,172c-47.49649,0 -86,-38.50351 -86,-86v0c0,-47.49649 38.50351,-86 86,-86v0c47.49649,0 86,38.50351 86,86v0c0,47.49649 -38.50351,86 -86,86z" fill="#b860ff"></path><g fill="#ffffff"><path d="M86,22.704c-34.92482,0 -63.296,28.37118 -63.296,63.296c0,34.92482 28.37118,63.296 63.296,63.296c34.92482,0 63.296,-28.37118 63.296,-63.296c0,-34.92482 -28.37118,-63.296 -63.296,-63.296zM86,28.208c31.95024,0 57.792,25.84176 57.792,57.792c0,31.95024 -25.84176,57.792 -57.792,57.792c-31.95024,0 -57.792,-25.84176 -57.792,-57.792c0,-31.95024 25.84176,-57.792 57.792,-57.792zM69.488,61.232c-4.52696,0 -8.256,3.72904 -8.256,8.256v33.024c0,4.52696 3.72904,8.256 8.256,8.256h33.024c4.52696,0 8.256,-3.72904 8.256,-8.256v-33.024c0,-4.52696 -3.72904,-8.256 -8.256,-8.256zM69.488,66.736h33.024c1.55496,0 2.752,1.19704 2.752,2.752v33.024c0,1.55496 -1.19704,2.752 -2.752,2.752h-33.024c-1.55496,0 -2.752,-1.19704 -2.752,-2.752v-33.024c0,-1.55496 1.19704,-2.752 2.752,-2.752z"></path></g></g></svg>