<svg xmlns="http://www.w3.org/2000/svg" x="0px" y="0px"
viewBox="0 0 226 226"
style=" fill:#000000;"><defs><radialGradient cx="95.59753" cy="180.93136" r="169.11956" gradientUnits="userSpaceOnUse" id="color-1_Xy10Jcu1L2Su_gr1"><stop offset="0" stop-color="#ffdd55"></stop><stop offset="0.328" stop-color="#ff543f"></stop><stop offset="0.348" stop-color="#fc5245"></stop><stop offset="0.504" stop-color="#e64771"></stop><stop offset="0.643" stop-color="#d53e91"></stop><stop offset="0.761" stop-color="#cc39a4"></stop><stop offset="0.841" stop-color="#c837ab"></stop></radialGradient><radialGradient cx="66.99346" cy="43.468" r="112.29563" gradientUnits="userSpaceOnUse" id="color-2_Xy10Jcu1L2Su_gr2"><stop offset="0" stop-color="#4168c9"></stop><stop offset="0.999" stop-color="#4168c9" stop-opacity="0"></stop></radialGradient></defs><g fill="none" fill-rule="nonzero" stroke="none" stroke-width="1" stroke-linecap="butt" stroke-linejoin="miter" stroke-miterlimit="10" stroke-dasharray="" stroke-dashoffset="0" font-family="none" font-weight="none" font-size="none" text-anchor="none" style="mix-blend-mode: normal"><path d="M0,226v-226h226v226z" fill="none"></path><path d="M113,114.13c-0.62408,0 -1.13,-0.50592 -1.13,-1.13v0c0,-0.62408 0.50592,-1.13 1.13,-1.13h0c0.62408,0 1.13,0.50592 1.13,1.13v0c0,0.62408 -0.50592,1.13 -1.13,1.13z" fill="#cccccc"></path><g><path d="M150.73023,180.76186l-75.33333,0.07157c-16.57333,0.01507 -30.14463,-13.52987 -30.16347,-30.1032l-0.07157,-75.33333c-0.01507,-16.57333 13.52987,-30.14463 30.1032,-30.16347l75.33333,-0.07157c16.57333,-0.01507 30.14463,13.52987 30.16347,30.1032l0.07157,75.33333c0.01883,16.5771 -13.52987,30.1484 -30.1032,30.16347z" fill="url(#color-1_Xy10Jcu1L2Su_gr1)"></path><path d="M150.73023,180.76186l-75.33333,0.07157c-16.57333,0.01507 -30.14463,-13.52987 -30.16347,-30.1032l-0.07157,-75.33333c-0.01507,-16.57333 13.52987,-30.14463 30.1032,-30.16347l75.33333,-0.07157c16.57333,-0.01507 30.14463,13.52987 30.16347,30.1032l0.07157,75.33333c0.01883,16.5771 -13.52987,30.1484 -30.1032,30.16347z" fill="url(#color-2_Xy10Jcu1L2Su_gr2)"></path><path d="M112.99953,139.3662c-14.53557,0 -26.36667,-11.82733 -26.36667,-26.36667c0,-14.53933 11.8311,-26.36667 26.36667,-26.36667c14.53557,0 26.36667,11.82733 26.36667,26.36667c0,14.53933 -11.8311,26.36667 -26.36667,26.36667zM112.99953,94.1662c-10.3847,0 -18.83333,8.44863 -18.83333,18.83333c0,10.3847 8.44863,18.83333 18.83333,18.83333c10.3847,0 18.83333,-8.44863 18.83333,-18.83333c0,-10.3847 -8.44863,-18.83333 -18.83333,-18.83333z" fill="#ffffff"></path><circle cx="37.49988" cy="22.49988" transform="scale(3.76667,3.76667)" r="1.5" fill="#ffffff"></circle><path d="M135.59953,161.9662h-45.2c-14.53557,0 -26.36667,-11.82733 -26.36667,-26.36667v-45.2c0,-14.53933 11.8311,-26.36667 26.36667,-26.36667h45.2c14.53557,0 26.36667,11.82733 26.36667,26.36667v45.2c0,14.53933 -11.8311,26.36667 -26.36667,26.36667zM90.39953,71.5662c-10.3847,0 -18.83333,8.44863 -18.83333,18.83333v45.2c0,10.3847 8.44863,18.83333 18.83333,18.83333h45.2c10.3847,0 18.83333,-8.44863 18.83333,-18.83333v-45.2c0,-10.3847 -8.44863,-18.83333 -18.83333,-18.83333z" fill="#ffffff"></path></g></g></svg>