<svg xmlns="http://www.w3.org/2000/svg" x="0px" y="0px"

viewBox="0 0 172 172"
style=" fill:#000000;"><g fill="none" fill-rule="nonzero" stroke="none" stroke-width="1" stroke-linecap="butt" stroke-linejoin="miter" stroke-miterlimit="10" stroke-dasharray="" stroke-dashoffset="0" font-family="none" font-weight="none" font-size="none" text-anchor="none" style="mix-blend-mode: normal"><path d="M0,172v-172h172v172z" fill="none"></path><path d="M86,172c-47.49649,0 -86,-38.50351 -86,-86v0c0,-47.49649 38.50351,-86 86,-86v0c47.49649,0 86,38.50351 86,86v0c0,47.49649 -38.50351,86 -86,86z" fill="#6466f3"></path><g fill="#ffffff"><path d="M54.56402,30.6375v9.02147l-4.28151,5.42352v3.55701l-1.40398,51.92257l-29.94195,10.97803v16.33197l67.06341,24.5921l67.06341,-24.5921v-16.33197l-22.07067,-8.0964l1.16657,9.36121l12.52118,4.58851v4.62535l-58.68049,21.514l-58.68049,-21.514v-4.62535l21.31752,-7.81397l-0.3602,13.27024h75.44634l-2.00568,-74.21019v-3.55701l-4.28151,-5.42352v-9.02147zM62.94695,39.02043h46.1061v3.55292l2.16122,2.73428h-50.42854l2.16122,-2.73428z"></path></g></g></svg>