<svg xmlns="http://www.w3.org/2000/svg" x="0px" y="0px"
viewBox="0 0 172 172"
style=" fill:#000000;"><g fill="none" fill-rule="nonzero" stroke="none" stroke-width="1" stroke-linecap="butt" stroke-linejoin="miter" stroke-miterlimit="10" stroke-dasharray="" stroke-dashoffset="0" font-family="none" font-weight="none" font-size="none" text-anchor="none" style="mix-blend-mode: normal"><path d="M0,172v-172h172v172z" fill="none"></path><path d="M86,172c-47.49649,0 -86,-38.50351 -86,-86v0c0,-47.49649 38.50351,-86 86,-86v0c47.49649,0 86,38.50351 86,86v0c0,47.49649 -38.50351,86 -86,86z" fill="#00cbc6"></path><g fill="#ffffff"><path d="M64.24834,119.30876c-6.93108,0 -12.54984,5.61875 -12.54984,12.54984c0,6.93108 5.61875,12.54984 12.54984,12.54984c6.93108,0 12.54984,-5.61875 12.54984,-12.54984c0,-6.93108 -5.61875,-12.54984 -12.54984,-12.54984zM64.24834,138.83073c-3.8506,0 -6.97213,-3.12153 -6.97213,-6.97213c0,-3.8506 3.12153,-6.97213 6.97213,-6.97213c3.8506,0 6.97213,3.12153 6.97213,6.97213c0,3.8506 -3.12153,6.97213 -6.97213,6.97213zM117.23655,119.30876c-6.93108,0 -12.54984,5.61875 -12.54984,12.54984c0,6.93108 5.61875,12.54984 12.54984,12.54984c6.93108,0 12.54984,-5.61875 12.54984,-12.54984c0,-6.93108 -5.61875,-12.54984 -12.54984,-12.54984zM117.23655,138.83073c-3.8506,0 -6.97213,-3.12153 -6.97213,-6.97213c0,-3.8506 3.12153,-6.97213 6.97213,-6.97213c3.8506,0 6.97213,3.12153 6.97213,6.97213c0,3.8506 -3.12153,6.97213 -6.97213,6.97213zM143.31233,44.98583l-90.77717,-1.25498l-2.50997,-7.66935c-1.76814,-5.12689 -6.56915,-8.58809 -11.99207,-8.64544h-9.34266c-1.54024,0 -2.78885,1.24861 -2.78885,2.78885c0,1.54024 1.24861,2.78885 2.78885,2.78885h9.34266c3.03222,0.0669 5.70244,2.01394 6.69325,4.88049l17.70922,53.40654l-1.39443,3.20718c-1.55511,4.0106 -1.08818,8.52418 1.25498,12.13151c2.3206,3.54281 6.22495,5.72924 10.4582,5.85659h54.24319c1.54024,0 2.78885,-1.24861 2.78885,-2.78885c0,-1.54024 -1.24861,-2.78885 -2.78885,-2.78885h-54.24319c-2.39072,-0.05986 -4.59127,-1.31732 -5.85659,-3.34662c-1.25109,-2.00455 -1.50831,-4.47389 -0.69721,-6.69325l1.11554,-2.50997l58.70536,-6.13548c6.44837,-0.71018 11.75266,-5.40029 13.24705,-11.71318l6.69325,-28.02797c0.30197,-0.80746 0.14178,-1.7152 -0.41833,-2.37053c-0.58065,-0.6343 -1.37525,-1.0316 -2.23108,-1.11554zM133.83023,75.24488c-0.90537,4.06373 -4.35565,7.06151 -8.506,7.39046l-58.00814,5.99603l-12.96817,-39.32283l85.47835,1.25498z"></path></g></g></svg>