<svg xmlns="http://www.w3.org/2000/svg" x="0px" y="0px"
viewBox="0 0 172 172"
style=" fill:#000000;"><g transform=""><g fill="none" fill-rule="nonzero" stroke="none" stroke-width="1" stroke-linecap="butt" stroke-linejoin="miter" stroke-miterlimit="10" stroke-dasharray="" stroke-dashoffset="0" font-family="none" font-weight="none" font-size="none" text-anchor="none" style="mix-blend-mode: normal"><path d="M0,172v-172h172v172z" fill="none"></path><path d="M86,172c-47.49649,0 -86,-38.50351 -86,-86v0c0,-47.49649 38.50351,-86 86,-86h0c47.49649,0 86,38.50351 86,86v0c0,47.49649 -38.50351,86 -86,86z" fill="#f56363"></path><g id="original-icon" fill="#ffffff" opacity="0" visibility="hidden"><path d="M86,29.5668c-13.09189,0 -23.736,10.64411 -23.736,23.736v4.7472h-18.76628l-10.01362,87.8232h105.0318l-10.01363,-87.8232h-14.01907v14.2416c0,3.93128 -3.18952,7.1208 -7.1208,7.1208c-0.5285,0 -1.06627,-0.03709 -1.55768,-0.14835c-3.18025,-0.71393 -5.56312,-3.56967 -5.56312,-6.97245c0,-3.08753 1.99345,-5.69293 4.7472,-6.67575v6.67575c0,1.30733 1.05699,2.3736 2.3736,2.3736c1.31661,0 2.3736,-1.06627 2.3736,-2.3736v-18.9888c0,-13.09189 -10.64411,-23.736 -23.736,-23.736zM86,34.314c10.46795,0 18.9888,8.52085 18.9888,18.9888v4.7472h-33.2304v14.2416c0,3.93128 -3.18953,7.1208 -7.1208,7.1208c-0.5285,0 -1.06627,-0.03709 -1.55768,-0.14835c-3.18952,-0.71393 -5.56312,-3.56967 -5.56312,-6.97245c0,-3.08753 1.99345,-5.69293 4.7472,-6.67575v6.67575c0,1.30733 1.06627,2.3736 2.3736,2.3736c1.30733,0 2.3736,-1.06627 2.3736,-2.3736v-18.9888c0,-10.46795 8.52085,-18.9888 18.9888,-18.9888z"></path></g><g id="subtracted-icon" fill="#ffffff"><path d="M109.736,53.3028v18.9888c0,1.30733 -1.05699,2.3736 -2.3736,2.3736c-1.31661,0 -2.3736,-1.06627 -2.3736,-2.3736v-6.67575c-2.75375,0.98282 -4.7472,3.58822 -4.7472,6.67575c0,3.40278 2.38287,6.25852 5.56312,6.97245c0.49141,0.11126 1.02918,0.14835 1.55768,0.14835c3.93128,0 7.1208,-3.18952 7.1208,-7.1208v-14.2416h14.01908l10.01362,87.8232l-59.44295,0l2.07705,-2.07705l45.64615,-45.31538l4.63077,-4.96154l-4.63077,-4.63077l-4.96154,-4.63077l-4.63077,-4.63077l-40.68462,40.68462l-15.87692,-16.20769l-4.96154,-4.63077l-13.89231,13.89231l4.63077,4.96154l27.54628,27.54628h-40.48141l10.01362,-87.8232h18.76628v-4.7472c0,-13.09189 10.64411,-23.736 23.736,-23.736c13.09189,0 23.736,10.64411 23.736,23.736zM67.0112,53.3028v18.9888c0,1.30733 -1.06627,2.3736 -2.3736,2.3736c-1.30733,0 -2.3736,-1.06627 -2.3736,-2.3736v-6.67575c-2.75375,0.98282 -4.7472,3.58822 -4.7472,6.67575c0,3.40278 2.3736,6.25852 5.56312,6.97245c0.49141,0.11126 1.02918,0.14835 1.55768,0.14835c3.93127,0 7.1208,-3.18952 7.1208,-7.1208v-14.2416h33.2304v-4.7472c0,-10.46795 -8.52085,-18.9888 -18.9888,-18.9888c-10.46795,0 -18.9888,8.52085 -18.9888,18.9888z"></path></g><path d="" fill="none"></path><path d="" fill="none"></path><path d="" fill="none"></path><path d="" fill="none"></path><g><g fill="#ffffff"><g id="Слой_2" font-family="Inter, sans-serif" font-weight="400" font-size="16" text-anchor="start" visibility="hidden"></g><g id="Android_x5F_4" font-family="Inter, sans-serif" font-weight="400" font-size="16" text-anchor="start" visibility="hidden"></g><g id="Android_x5F_5" font-family="Inter, sans-serif" font-weight="400" font-size="16" text-anchor="start" visibility="hidden"></g><g id="Windows_x5F_8" font-family="Inter, sans-serif" font-weight="400" font-size="16" text-anchor="start" visibility="hidden"></g><g id="Windows_x5F_10" font-family="Inter, sans-serif" font-weight="400" font-size="16" text-anchor="start" visibility="hidden"></g><g id="Color" font-family="Inter, sans-serif" font-weight="400" font-size="16" text-anchor="start" visibility="hidden"></g><g id="IOS" font-family="Inter, sans-serif" font-weight="400" font-size="16" text-anchor="start" visibility="hidden"></g><g id="IOS_copy"><path d="M76.68462,139l-25.46923,-25.46923l4.63077,-4.63077l20.83846,20.83846l40.68462,-40.68462l4.63077,4.63077z"></path></g></g><g fill="#000000" opacity="0"><g id="IOS" font-family="Inter, sans-serif" font-weight="400" font-size="16" text-anchor="start" visibility="hidden"></g><g id="IOS_copy"><path d="M121.83462,84.25769l-4.63077,-4.63077l-4.63077,4.63077l-36.05385,36.05385l-15.87692,-16.20769l-4.96154,-4.63077l-4.63077,4.63077l-4.63077,4.63077l-4.63077,4.63077l4.63077,4.96154l25.46923,25.46923l4.63077,4.63077l4.63077,-4.63077l45.64615,-45.31538l4.63077,-4.96154l-4.63077,-4.63077z"></path></g></g></g></g></g></svg>