<svg xmlns="http://www.w3.org/2000/svg" x="0px" y="0px"
viewBox="0 0 172 172"
style=" fill:#000000;"><g fill="none" fill-rule="nonzero" stroke="none" stroke-width="1" stroke-linecap="butt" stroke-linejoin="miter" stroke-miterlimit="10" stroke-dasharray="" stroke-dashoffset="0" font-family="none" font-weight="none" font-size="none" text-anchor="none" style="mix-blend-mode: normal"><path d="M0,172v-172h172v172z" fill="none"></path><path d="M86,172c-47.49649,0 -86,-38.50351 -86,-86v0c0,-47.49649 38.50351,-86 86,-86v0c47.49649,0 86,38.50351 86,86v0c0,47.49649 -38.50351,86 -86,86z" fill="#5cfa76"></path><g fill="#ffffff"><path d="M41.26774,32.12671c-0.09084,0.00025 -0.18223,0.00507 -0.27452,0.0147c-1.47624,0.15426 -2.54834,1.47581 -2.39408,2.95205l1.77364,16.97639c0.13034,1.25049 1.1103,2.24287 2.35891,2.38988l17.22992,2.02717c0.10669,0.01236 0.21248,0.01837 0.31757,0.01837c1.34375,0 2.50473,-1.00621 2.66598,-2.37361c0.17334,-1.47409 -0.88114,-2.80941 -2.35524,-2.98302l-12.70946,-1.49545c18.98115,-16.56112 47.91169,-15.80883 65.98442,2.2639c18.86141,18.86141 18.86141,49.55121 0,68.41262c-9.13669,9.13696 -21.28429,14.16921 -34.20579,14.16921c-12.9215,0 -25.06935,-5.03225 -34.20631,-14.16921c-1.04947,-1.0492 -2.75162,-1.0492 -3.80082,0c-1.04947,1.04974 -1.04947,2.75135 0,3.80082c10.1523,10.15203 23.64997,15.7434 38.00713,15.7434c14.35716,0 27.85484,-5.5911 38.0066,-15.7434c20.95686,-20.95686 20.95686,-55.05713 0,-76.01426c-19.86301,-19.86276 -51.53047,-20.89623 -72.62601,-3.10742l-1.09442,-10.4739c-0.14462,-1.38398 -1.31498,-2.41201 -2.67753,-2.40825zM89.85428,56.7588c-1.24996,-0.02666 -2.38749,0.82729 -2.67438,2.09384l-5.63273,24.86252l-30.54669,5.39075c-1.46173,0.258 -2.43739,1.65199 -2.17939,3.11372c0.23005,1.30371 1.36389,2.22086 2.64341,2.22086c0.15507,0 0.31256,-0.01379 0.47031,-0.04147l32.30564,-5.70096c1.06613,-0.18839 1.91528,-0.99724 2.1542,-2.05289l6.02745,-26.6052c0.32788,-1.44749 -0.57994,-2.88663 -2.0277,-3.2145c-0.181,-0.04112 -0.36156,-0.06286 -0.54012,-0.06666z"></path></g></g></svg>