<svg xmlns="http://www.w3.org/2000/svg" x="0px" y="0px"
viewBox="0 0 172 172"
style=" fill:#000000;"><g fill="none" fill-rule="nonzero" stroke="none" stroke-width="1" stroke-linecap="butt" stroke-linejoin="miter" stroke-miterlimit="10" stroke-dasharray="" stroke-dashoffset="0" font-family="none" font-weight="none" font-size="none" text-anchor="none" style="mix-blend-mode: normal"><path d="M0,172v-172h172v172z" fill="none"></path><path d="M86,160.82c-41.32194,0 -74.82,-33.49806 -74.82,-74.82v0c0,-41.32194 33.49806,-74.82 74.82,-74.82v0c41.32194,0 74.82,33.49806 74.82,74.82v0c0,41.32194 -33.49806,74.82 -74.82,74.82z" fill="#232222"></path><g fill="#686eab"><path d="M85.99888,30.38667c-15.20021,0 -27.52,12.31979 -27.52,27.52v4.58667c0,15.20021 12.31979,27.52 27.52,27.52c15.20021,0 27.52,-12.31979 27.52,-27.52v-4.58667c0,-15.20021 -12.31979,-27.52 -27.52,-27.52zM85.98992,103.77333c-18.37419,0 -41.94965,9.93859 -48.73333,18.75875c-4.19221,5.45355 -0.20146,13.34792 6.67396,13.34792h84.12771c6.87541,0 10.86617,-7.89437 6.67396,-13.34792c-6.78368,-8.81557 -30.3681,-18.75875 -48.74229,-18.75875z"></path></g></g></svg>