<!-- <svg xmlns="http://www.w3.org/2000/svg"  viewBox="0 0 24 24" fill="#ff0909"><path d="M0 0h24v24H0V0z" fill="none"/><path d="M12 2C6.48 2 2 6.48 2 12s4.48 10 10 10 10-4.48 10-10S17.52 2 12 2zM7.07 18.28c.43-.9 3.05-1.78 4.93-1.78s4.51.88 4.93 1.78C15.57 19.36 13.86 20 12 20s-3.57-.64-4.93-1.72zm11.29-1.45c-1.43-1.74-4.9-2.33-6.36-2.33s-4.93.59-6.36 2.33C4.62 15.49 4 13.82 4 12c0-4.41 3.59-8 8-8s8 3.59 8 8c0 1.82-.62 3.49-1.64 4.83zM12 6c-1.94 0-3.5 1.56-3.5 3.5S10.06 13 12 13s3.5-1.56 3.5-3.5S13.94 6 12 6zm0 5c-.83 0-1.5-.67-1.5-1.5S11.17 8 12 8s1.5.67 1.5 1.5S12.83 11 12 11z"/></svg> -->


<svg xmlns="http://www.w3.org/2000/svg" x="0px" y="0px"
viewBox="0 0 172 172"
style=" fill:#000000;"><g transform=""><g fill="none" fill-rule="nonzero" stroke="none" stroke-width="1" stroke-linecap="butt" stroke-linejoin="miter" stroke-miterlimit="10" stroke-dasharray="" stroke-dashoffset="0" font-family="none" font-weight="none" font-size="none" text-anchor="none" style="mix-blend-mode: normal"><path d="M0,172v-172h172v172z" fill="none"></path><path d="" fill="none"></path><path d="" fill="none"></path><path d="" fill="none"></path><g fill="#666666"><path d="M80.625,10.75c-38.50683,0 -69.875,31.36817 -69.875,69.875c0,38.50683 31.36817,69.875 69.875,69.875c38.50683,0 69.875,-31.36817 69.875,-69.875c0,-38.50683 -31.36817,-69.875 -69.875,-69.875zM80.625,21.5c32.71192,0 59.125,26.41308 59.125,59.125c0,14.40332 -5.12304,27.54688 -13.60547,37.79297c-4.61914,-13.10156 -14.61328,-23.6416 -27.37891,-28.84864c5.33301,-4.91308 8.73438,-11.92578 8.73438,-19.69433c0,-14.78125 -12.09375,-26.875 -26.875,-26.875c-14.78125,0 -26.875,12.09375 -26.875,26.875c0,7.76855 3.40136,14.78125 8.73438,19.69433c-12.76562,5.20703 -22.71777,15.74707 -27.33692,28.84864c-8.52441,-10.24609 -13.64746,-23.38965 -13.64746,-37.79297c0,-32.71192 26.41308,-59.125 59.125,-59.125zM80.625,53.75c8.98633,0 16.125,7.13868 16.125,16.125c0,8.98633 -7.13867,16.125 -16.125,16.125c-8.98632,0 -16.125,-7.13867 -16.125,-16.125c0,-8.98632 7.13868,-16.125 16.125,-16.125zM80.625,96.75c18.2666,0 33.25781,12.97558 36.74317,30.19239c-10.12011,8.02051 -22.84375,12.80761 -36.74317,12.80761c-13.89942,0 -26.62304,-4.7871 -36.70117,-12.80761c3.44335,-17.2168 18.43456,-30.19239 36.70117,-30.19239z"></path></g></g></g></svg>
