<svg xmlns="http://www.w3.org/2000/svg" x="0px" y="0px"
viewBox="0 0 172 172"
style=" fill:#000000;"><g fill="none" fill-rule="nonzero" stroke="none" stroke-width="1" stroke-linecap="butt" stroke-linejoin="miter" stroke-miterlimit="10" stroke-dasharray="" stroke-dashoffset="0" font-family="none" font-weight="none" font-size="none" text-anchor="none" style="mix-blend-mode: normal"><path d="M0,172v-172h172v172z" fill="none"></path><g fill="#ff3300"><path d="M86,7.16667l-28.66667,28.66667h21.5v28.66667h14.33333v-28.66667h21.5zM31.63411,14.30534l-24.43945,0.12598l0.06999,14.33333l14.83724,-0.06999l23.61361,56.64746l-8.5944,13.73145c-2.8595,4.58667 -3.00093,10.38036 -0.37793,15.10319c2.623,4.73 7.59991,7.65657 13.00358,7.65657h86.41992v-14.33333h-86.41992l-0.46191,-0.83985l8.42643,-13.49349h53.52604c5.203,0 10.005,-2.83296 12.52767,-7.37663l29.47851,-53.06413l-12.52766,-6.95671l-29.47852,53.06413h-52.71419zM50.16667,129c-7.91608,0 -14.33333,6.41725 -14.33333,14.33333c0,7.91608 6.41725,14.33333 14.33333,14.33333c7.91608,0 14.33333,-6.41725 14.33333,-14.33333c0,-7.91608 -6.41725,-14.33333 -14.33333,-14.33333zM121.83333,129c-7.91608,0 -14.33333,6.41725 -14.33333,14.33333c0,7.91608 6.41725,14.33333 14.33333,14.33333c7.91608,0 14.33333,-6.41725 14.33333,-14.33333c0,-7.91608 -6.41725,-14.33333 -14.33333,-14.33333z"></path></g></g></svg>