<?xml version="1.0" standalone="no"?>
<svg version="1.0" xmlns="http://www.w3.org/2000/svg"
 width="512.000000pt" height="512.000000pt" viewBox="0 0 512.000000 512.000000"
 preserveAspectRatio="xMidYMid meet">
<g transform="translate(0.000000,512.000000) scale(0.100000,-0.100000)"
fill="#444444" stroke="none">
<path d="M650 4125 l0 -85 393 0 392 0 233 -1101 c128 -605 238 -1109 245
-1120 6 -10 25 -23 41 -29 39 -13 1815 -13 1911 0 139 20 271 113 329 232 16
33 89 309 192 723 186 753 186 754 128 837 -16 23 -49 56 -73 73 l-43 30
-1059 3 -1059 2 0 -80 0 -80 1030 0 1031 0 24 -25 c14 -13 25 -32 25 -42 0
-31 -319 -1315 -337 -1356 -23 -52 -77 -105 -137 -133 l-51 -24 -910 0 -910 0
-229 1082 c-126 595 -233 1097 -238 1115 -17 63 -19 63 -498 63 l-430 0 0 -85z"/>
<path d="M2384 1590 c-109 -22 -214 -111 -254 -216 -30 -81 -25 -196 12 -269
134 -259 493 -250 617 14 37 80 37 192 0 272 -52 109 -138 177 -253 198 -66
12 -64 12 -122 1z m146 -180 c124 -63 123 -247 -3 -311 -51 -26 -134 -23 -175
8 -90 66 -105 181 -35 264 51 60 140 76 213 39z"/>
<path d="M3554 1590 c-101 -21 -203 -102 -247 -198 -31 -67 -31 -207 0 -274
77 -168 283 -250 445 -176 75 35 141 98 175 167 24 48 28 68 28 146 0 78 -4
98 -28 146 -66 136 -229 218 -373 189z m170 -194 c48 -36 70 -80 70 -141 0
-61 -22 -105 -71 -142 -31 -24 -46 -28 -103 -28 -58 0 -71 4 -104 29 -38 29
-75 93 -76 131 0 67 43 139 102 169 50 26 136 17 182 -18z"/>
</g>
</svg>
