<svg xmlns="http://www.w3.org/2000/svg" x="0px" y="0px" viewBox="0 0 226 226" style=" fill:#000000;"> <g fill="none" fill-rule="nonzero" stroke="none" stroke-width="1" stroke-linecap="butt" stroke-linejoin="miter" stroke-miterlimit="10" stroke-dasharray="" stroke-dashoffset="0" font-family="none" font-weight="none" font-size="none" text-anchor="none" style="mix-blend-mode: normal"> <path d="M0,226v-226h226v226z" fill="none"></path> <path d="M113,226c-62.40818,0 -113,-50.59182 -113,-113v0c0,-62.40818 50.59182,-113 113,-113v0c62.40818,0 113,50.59182 113,113v0c0,62.40818 -50.59182,113 -113,113z" fill="#ff22af"></path> <g> <path d="M161.816,80.456v0h-97.632h-9.04v9.04l9.04,9.04v60.22086c0,12.61984 9.57336,19.33114 21.27293,19.33114h54.72635c11.89845,0 21.63272,-6.7113 21.63272,-19.33114v-60.37093l9.04,-8.88994v-9.04z" fill="#8b8bc1"></path> <path d="M140.18328,179.896h-54.72635c-13.80589,0 -23.08093,-8.49579 -23.08093,-21.13914v-59.47235l-8.51026,-8.51026c-0.3399,-0.3381 -0.52974,-0.79914 -0.52974,-1.27826v-9.04c0,-0.99802 0.80998,-1.808 1.808,-1.808h115.712c0.99802,0 1.808,0.80998 1.808,1.808v9.04c0,0.48454 -0.19526,0.9492 -0.54059,1.2891l-8.49941,8.35838v59.61338c0,12.64334 -9.41968,21.13914 -23.44072,21.13914zM56.952,88.74749l8.51026,8.51026c0.3399,0.3381 0.52974,0.79914 0.52974,1.27826v60.22086c0,12.93262 10.4864,17.52314 19.46493,17.52314h54.72635c9.14486,0 19.82472,-4.59051 19.82472,-17.52314v-60.37093c0,-0.48454 0.19526,-0.9492 0.54059,-1.2891l8.49941,-8.35838v-6.47445h-112.096z" fill="#1f212b"></path> <path d="M75.936,131.984v-31.79006c0,-2.486 2.034,-4.52 4.52,-4.52v0c2.486,0 4.52,2.034 4.52,4.52v30.284v25.764c0,2.486 -2.034,4.52 -4.52,4.52v0c-2.486,0 -4.52,-2.034 -4.52,-4.52v-6.17794z" fill="#6869ad"></path> <path d="M80.456,161.66594c-2.99043,0 -5.424,-2.43357 -5.424,-5.424v-6.17794c0,-0.49901 0.40499,-0.904 0.904,-0.904c0.49901,0 0.904,0.40499 0.904,0.904v6.17794c0,1.99422 1.62178,3.616 3.616,3.616c1.99422,0 3.616,-1.62178 3.616,-3.616v-56.048c0,-1.99422 -1.62178,-3.616 -3.616,-3.616c-1.99422,0 -3.616,1.62178 -3.616,3.616v31.79006c0,0.49901 -0.40499,0.904 -0.904,0.904c-0.49901,0 -0.904,-0.40499 -0.904,-0.904v-31.79006c0,-2.99043 2.43357,-5.424 5.424,-5.424c2.99043,0 5.424,2.43357 5.424,5.424v56.048c0,2.99043 -2.43357,5.424 -5.424,5.424z" fill="#1f212b"></path> <path d="M75.936,141.928c-0.49901,0 -0.904,-0.40499 -0.904,-0.904v-5.424c0,-0.49901 0.40499,-0.904 0.904,-0.904c0.49901,0 0.904,0.40499 0.904,0.904v5.424c0,0.49901 -0.40499,0.904 -0.904,0.904z" fill="#1f212b"></path> <path d="M102.152,160.912v0c-2.486,0 -4.52,-2.034 -4.52,-4.52v-56.048c0,-2.486 2.034,-4.52 4.52,-4.52v0c2.486,0 4.52,2.034 4.52,4.52v56.048c0,2.486 -2.034,4.52 -4.52,4.52z" fill="#6869ad"></path> <path d="M102.152,161.816c-2.99043,0 -5.424,-2.43357 -5.424,-5.424v-56.048c0,-2.99043 2.43357,-5.424 5.424,-5.424c2.99043,0 5.424,2.43357 5.424,5.424v56.048c0,2.99043 -2.43357,5.424 -5.424,5.424zM102.152,96.728c-1.99422,0 -3.616,1.62178 -3.616,3.616v56.048c0,1.99422 1.62178,3.616 3.616,3.616c1.99422,0 3.616,-1.62178 3.616,-3.616v-56.048c0,-1.99422 -1.62178,-3.616 -3.616,-3.616z" fill="#1f212b"></path> <path d="M123.848,160.912v0c-2.486,0 -4.52,-2.034 -4.52,-4.52v-56.048c0,-2.486 2.034,-4.52 4.52,-4.52v0c2.486,0 4.52,2.034 4.52,4.52v56.048c0,2.486 -2.034,4.52 -4.52,4.52z" fill="#6869ad"></path> <path d="M123.848,161.816c-2.99043,0 -5.424,-2.43357 -5.424,-5.424v-56.048c0,-2.99043 2.43357,-5.424 5.424,-5.424c2.99043,0 5.424,2.43357 5.424,5.424v56.048c0,2.99043 -2.43357,5.424 -5.424,5.424zM123.848,96.728c-1.99422,0 -3.616,1.62178 -3.616,3.616v56.048c0,1.99422 1.62178,3.616 3.616,3.616c1.99422,0 3.616,-1.62178 3.616,-3.616v-56.048c0,-1.99422 -1.62178,-3.616 -3.616,-3.616z" fill="#1f212b"></path> <path d="M145.544,160.912v0c-2.486,0 -4.52,-2.034 -4.52,-4.52v-56.048c0,-2.486 2.034,-4.52 4.52,-4.52v0c2.486,0 4.52,2.034 4.52,4.52v56.048c0,2.486 -2.034,4.52 -4.52,4.52z" fill="#6869ad"></path> <path d="M145.544,161.816c-2.99043,0 -5.424,-2.43357 -5.424,-5.424v-56.048c0,-2.99043 2.43357,-5.424 5.424,-5.424c2.99043,0 5.424,2.43357 5.424,5.424v56.048c0,2.99043 -2.43357,5.424 -5.424,5.424zM145.544,96.728c-1.99422,0 -3.616,1.62178 -3.616,3.616v56.048c0,1.99422 1.62178,3.616 3.616,3.616c1.99422,0 3.616,-1.62178 3.616,-3.616v-56.048c0,-1.99422 -1.62178,-3.616 -3.616,-3.616z" fill="#1f212b"></path> <path d="M170.856,80.456v-0.4285c0,-12.68131 -5.19438,-19.4595 -20.38158,-19.4595h-74.94883c-15.1872,0 -20.38158,6.77819 -20.38158,19.4595v0.4285z" fill="#a3a3cd"></path> <path d="M170.856,82.264h-115.712c-0.99802,0 -1.808,-0.80998 -1.808,-1.808v-0.4285c0,-14.70808 6.84328,-21.2675 22.18778,-21.2675h74.95064c15.3463,0 22.18958,6.55942 22.18958,21.2675v0.4285c0,0.99802 -0.80998,1.808 -1.808,1.808zM56.9755,78.648h112.0508c-0.39053,-11.53504 -5.8525,-16.272 -18.55008,-16.272h-74.95245c-12.69578,0 -18.15774,4.73696 -18.54827,16.272z" fill="#1f212b"></path> <path d="M169.952,87.688h-113.904c-0.49901,0 -0.904,-0.40499 -0.904,-0.904c0,-0.49901 0.40499,-0.904 0.904,-0.904h113.904c0.49901,0 0.904,0.40499 0.904,0.904c0,0.49901 -0.40499,0.904 -0.904,0.904z" fill="#1f212b"></path> <path d="M159.104,170.856h-90.4c-0.49901,0 -0.904,-0.40499 -0.904,-0.904c0,-0.49901 0.40499,-0.904 0.904,-0.904h90.4c0.49901,0 0.904,0.40499 0.904,0.904c0,0.49901 -0.40499,0.904 -0.904,0.904z" fill="#1f212b"></path> <path d="M136.504,62.376h-47.008c-0.99802,0 -1.808,-0.80998 -1.808,-1.808v-4.78397c0,-5.33902 4.17467,-9.68003 9.30397,-9.68003h32.01606c5.1293,0 9.30397,4.34101 9.30397,9.68003v4.78397c0,0.99802 -0.80998,1.808 -1.808,1.808zM91.304,58.76h43.392v-2.97597c0,-3.3448 -2.55109,-6.06403 -5.68797,-6.06403h-32.01606c-3.13688,0 -5.68797,2.71923 -5.68797,6.06403z" fill="#1f212b"></path> <path d="M153.68,75.032h-97.632c-0.49901,0 -0.904,-0.40499 -0.904,-0.904c0,-0.49901 0.40499,-0.904 0.904,-0.904h97.632c0.49901,0 0.904,0.40499 0.904,0.904c0,0.49901 -0.40499,0.904 -0.904,0.904z" fill="#1f212b"></path> <path d="M161.816,129.12194c-0.99802,0 -1.808,-0.80998 -1.808,-1.808v-21.696c0,-0.99802 0.80998,-1.808 1.808,-1.808c4.98466,0 9.04,4.05534 9.04,9.04v7.232c0,4.98285 -4.05534,9.04 -9.04,9.04zM163.624,107.7351v17.45986c2.10451,-0.7467 3.616,-2.7572 3.616,-5.11483v-7.232c0,-2.35582 -1.51149,-4.36813 -3.616,-5.11302z" fill="#1f212b"></path> <path d="M64.184,129.12194c-4.98466,0 -9.04,-4.05534 -9.04,-9.04v-7.232c0,-4.98466 4.05534,-9.04 9.04,-9.04c0.99802,0 1.808,0.80998 1.808,1.808v21.696c0,0.99802 -0.80998,1.808 -1.808,1.808zM62.376,107.7351c-2.10451,0.7467 -3.616,2.7572 -3.616,5.11483v7.232c0,2.35763 1.51149,4.36813 3.616,5.11483z" fill="#1f212b"></path> <path d="M164.528,75.032h-5.424c-0.49901,0 -0.904,-0.40499 -0.904,-0.904c0,-0.49901 0.40499,-0.904 0.904,-0.904h5.424c0.49901,0 0.904,0.40499 0.904,0.904c0,0.49901 -0.40499,0.904 -0.904,0.904z" fill="#1f212b"></path> </g> </g></svg>