<svg xmlns="http://www.w3.org/2000/svg" x="0px" y="0px"
viewBox="0 0 226 226"
style=" fill:#000000;"><g fill="none" fill-rule="none" stroke="none" stroke-width="1" stroke-linecap="butt" stroke-linejoin="miter" stroke-miterlimit="10" stroke-dasharray="" stroke-dashoffset="0" font-family="none" font-weight="none" font-size="none" text-anchor="none" style="mix-blend-mode: normal"><path d="M0,226v-226h226v226z" fill="none" fill-rule="nonzero"></path><path d="M113,179.67c-36.82082,0 -66.67,-29.84918 -66.67,-66.67v0c0,-36.82082 29.84918,-66.67 66.67,-66.67h0c36.82082,0 66.67,29.84918 66.67,66.67v0c0,36.82082 -29.84918,66.67 -66.67,66.67z" fill="#2ecc71" fill-rule="nonzero"></path><g><path d="M38.18115,188.55618l10.52793,-38.43436c-6.49496,-11.24698 -9.91048,-24.01024 -9.90657,-37.08222c0.01954,-40.89635 33.29936,-74.16835 74.19961,-74.16835c19.84831,0.00782 38.47344,7.73377 52.48332,21.75146c14.00597,14.02161 21.7202,32.65455 21.71238,52.47551c-0.01563,40.89635 -33.30327,74.17226 -74.19571,74.17226c-0.00391,0 0,0 0,0h-0.03126c-12.41545,-0.00391 -24.61988,-3.11852 -35.45653,-9.0312z" fill="#ffffff" fill-rule="nonzero"></path><path d="M38.18115,190.51014c-0.51584,0 -1.01606,-0.20321 -1.38731,-0.57837c-0.48849,-0.49631 -0.67998,-1.21927 -0.49631,-1.88752l10.31299,-37.65669c-6.39335,-11.35641 -9.76588,-24.25253 -9.75807,-37.34405c0.01563,-41.97884 34.17473,-76.12622 76.14966,-76.12622c20.36025,0.00782 39.4895,7.93698 53.86672,22.32593c14.37723,14.39286 22.29076,33.5182 22.28294,53.855c-0.01563,41.97493 -34.17864,76.12622 -76.14966,76.12622c-12.46235,-0.00391 -24.79182,-3.07944 -35.73399,-8.89833l-38.59068,10.1176c-0.16413,0.04689 -0.32826,0.06643 -0.49631,0.06643z" fill="#ffffff" fill-rule="nonzero"></path><path d="M113.00212,38.87125c19.84831,0.00782 38.47344,7.73377 52.48332,21.75146c14.00597,14.02161 21.7202,32.65455 21.71238,52.47551c-0.01563,40.89635 -33.30327,74.17226 -74.19571,74.17226h-0.03126c-12.41545,-0.00391 -24.61988,-3.11852 -35.45653,-9.0312l-39.33318,10.3169l10.52793,-38.43436c-6.49496,-11.24698 -9.91048,-24.01024 -9.90657,-37.08222c0.01954,-40.89635 33.29936,-74.16835 74.19961,-74.16835M113.00212,187.27047v0v0M113.00212,187.27047v0v0M113.00212,34.96333v0c-43.04961,0 -78.08799,35.02275 -78.10753,78.07627c-0.00391,13.15796 3.31782,26.12442 9.61738,37.60197l-10.10196,36.88683c-0.36734,1.34823 0.00782,2.78634 0.99261,3.77896c0.7425,0.75032 1.74684,1.16065 2.77853,1.16065c0.33217,0 0.66435,-0.04299 0.99261,-0.12896l37.85599,-9.92611c11.05159,5.73682 23.43968,8.76546 35.94111,8.76937c43.08087,0 78.11925,-35.02666 78.13879,-78.08018c0.00782,-20.86437 -8.10893,-40.48211 -22.8535,-55.2384c-14.75239,-14.7602 -34.37404,-22.89258 -55.25403,-22.90039z" fill="#cfd8dc" fill-rule="nonzero"></path><path d="M156.62229,69.47805c-11.64559,-11.65341 -27.12485,-18.07411 -43.60063,-18.07802c-34.01451,0 -61.67865,27.65242 -61.69428,61.64348c-0.00391,11.6495 3.25529,22.99027 9.4298,32.81087l1.46938,2.33303l-6.23313,22.74798l23.34199,-6.1198l2.25487,1.33651c9.46497,5.61958 20.32117,8.5896 31.38839,8.59351h0.02345c33.99106,0 61.6552,-27.65633 61.66693,-61.65129c0.00391,-16.47187 -6.40117,-31.96285 -18.04676,-43.61626z" fill="#40c351" fill-rule="nonzero"></path><path d="M94.45515,82.03419c-1.38731,-3.08725 -2.84887,-3.14978 -4.17366,-3.20449c-1.08249,-0.0469 -2.31739,-0.04299 -3.5523,-0.04299c-1.2349,0 -3.24357,0.46504 -4.94351,2.3213c-1.69994,1.85626 -6.49105,6.33864 -6.49105,15.45972c0,9.12108 6.64346,17.93734 7.56963,19.17224c0.92618,1.2349 12.82578,20.55173 31.66976,27.98459c15.65902,6.17451 18.84788,4.94742 22.24777,4.6387c3.39989,-0.30873 10.96952,-4.48238 12.51315,-8.81235c1.54363,-4.32997 1.54363,-8.03858 1.08249,-8.81235c-0.46504,-0.77377 -1.69994,-1.2349 -3.5523,-2.16499c-1.85235,-0.93008 -10.96952,-5.41246 -12.66947,-6.02992c-1.69994,-0.61745 -2.93485,-0.92618 -4.17366,0.93008c-1.2349,1.85235 -4.7872,6.02992 -5.86969,7.26482c-1.08249,1.23881 -2.16499,1.39513 -4.01734,0.46504c-1.85235,-0.93008 -7.82365,-2.88404 -14.9087,-9.19924c-5.51016,-4.91225 -9.2305,-10.98125 -10.31299,-12.83751c-1.08249,-1.85235 -0.11724,-2.85669 0.81285,-3.78286c0.83239,-0.83239 1.85235,-2.16499 2.78244,-3.24748c0.92618,-1.08249 1.2349,-1.85626 1.85235,-3.09116c0.61745,-1.23881 0.30873,-2.3213 -0.15632,-3.24748c-0.45723,-0.93008 -4.06033,-10.09806 -5.70947,-13.76368z" fill="#ffffff" fill-rule="evenodd"></path></g></g></svg>