<svg xmlns="http://www.w3.org/2000/svg" x="0px" y="0px"
viewBox="0 0 172 172"
style=" fill:#000000;"><g fill="none" fill-rule="nonzero" stroke="none" stroke-width="1" stroke-linecap="butt" stroke-linejoin="miter" stroke-miterlimit="10" stroke-dasharray="" stroke-dashoffset="0" font-family="none" font-weight="none" font-size="none" text-anchor="none" style="mix-blend-mode: normal"><path d="M0,172v-172h172v172z" fill="none"></path><path d="M86,172c-47.49649,0 -86,-38.50351 -86,-86v0c0,-47.49649 38.50351,-86 86,-86v0c47.49649,0 86,38.50351 86,86v0c0,47.49649 -38.50351,86 -86,86z" fill="#f6628e"></path><g fill="#ffffff"><path d="M111.22003,35.83333c-16.22488,0 -25.22003,11.7133 -25.22003,11.7133c0,0 -8.99514,-11.7133 -25.22003,-11.7133c-17.02632,0 -30.82448,13.79816 -30.82448,30.82448c0,23.37616 27.52906,46.02935 35.20155,53.18624c8.83822,8.23854 20.84295,18.83095 20.84295,18.83095c0,0 12.00473,-10.59241 20.84295,-18.83095c7.67249,-7.15688 35.20155,-29.81007 35.20155,-53.18624c0,-17.02632 -13.79816,-30.82448 -30.82448,-30.82448zM101.75411,109.30768c-0.99199,0.89671 -1.85507,1.67573 -2.55563,2.33145c-4.20894,3.92312 -9.18569,8.42349 -13.19848,12.02155c-4.01279,-3.59806 -8.99514,-8.10404 -13.19848,-12.02155c-0.70616,-0.65572 -1.56925,-1.44034 -2.55563,-2.33145c-7.95832,-7.19051 -29.08149,-26.29048 -29.08149,-42.64987c0,-10.81659 8.79899,-19.61558 19.61558,-19.61558c10.23933,0 16.17444,7.14567 16.33137,7.33062l8.88866,9.48273l8.88866,-9.48273c0.05604,-0.07286 6.09204,-7.33062 16.33137,-7.33062c10.81659,0 19.61558,8.79899 19.61558,19.61558c0,16.35939 -21.12317,35.45936 -29.08149,42.64987z"></path></g></g></svg>